ETBookDisplayOT-Italic.ufo
<glyph name="quotedbl" format="1">
  <advance width="424"/>
  <unicode hex="0022"/>
  <outline>
    <contour>
      <point x="486" y="625" type="curve" smooth="yes"/>
      <point x="486" y="607"/>
      <point x="467" y="557"/>
      <point x="447" y="513" type="curve" smooth="yes"/>
      <point x="378" y="364" type="line"/>
      <point x="350" y="364" type="line"/>
      <point x="365" y="513" type="line"/>
      <point x="370" y="564" type="line" smooth="yes"/>
      <point x="376" y="624"/>
      <point x="405" y="662"/>
      <point x="447" y="662" type="curve" smooth="yes"/>
      <point x="471" y="662"/>
      <point x="486" y="648"/>
    </contour>
    <contour>
      <point x="304" y="624" type="curve" smooth="yes"/>
      <point x="304" y="614"/>
      <point x="303" y="607"/>
      <point x="297" y="592" type="curve" smooth="yes"/>
      <point x="292" y="577"/>
      <point x="281" y="555"/>
      <point x="262" y="514" type="curve" smooth="yes"/>
      <point x="194" y="364" type="line"/>
      <point x="168" y="364" type="line"/>
      <point x="184" y="515" type="line" smooth="yes"/>
      <point x="196" y="628"/>
      <point x="212" y="662"/>
      <point x="265" y="662" type="curve" smooth="yes"/>
      <point x="288" y="662"/>
      <point x="304" y="647"/>
    </contour>
  </outline>
</glyph>
<glyph name="numbersign" format="1">
  <advance width="680"/>
  <unicode hex="0023"/>
  <outline>
    <contour>
      <point x="634" y="182" type="line"/>
      <point x="471" y="182" type="line"/>
      <point x="430" y="-25" type="line"/>
      <point x="373" y="-25" type="line"/>
      <point x="417" y="182" type="line"/>
      <point x="201" y="182" type="line"/>
      <point x="160" y="-25" type="line"/>
      <point x="104" y="-25" type="line"/>
      <point x="146" y="182" type="line"/>
      <point x="44" y="182" type="line"/>
      <point x="44" y="239" type="line"/>
      <point x="157" y="239" type="line"/>
      <point x="197" y="431" type="line"/>
      <point x="44" y="431" type="line"/>
      <point x="44" y="488" type="line"/>
      <point x="209" y="488" type="line"/>
      <point x="252" y="696" type="line"/>
      <point x="307" y="696" type="line"/>
      <point x="264" y="488" type="line"/>
      <point x="478" y="488" type="line"/>
      <point x="521" y="696" type="line"/>
      <point x="576" y="696" type="line"/>
      <point x="533" y="488" type="line"/>
      <point x="634" y="488" type="line"/>
      <point x="634" y="431" type="line"/>
      <point x="522" y="431" type="line"/>
      <point x="482" y="239" type="line"/>
      <point x="634" y="239" type="line"/>
    </contour>
    <contour>
      <point x="467" y="431" type="line"/>
      <point x="252" y="431" type="line"/>
      <point x="212" y="240" type="line"/>
      <point x="428" y="240" type="line"/>
    </contour>
  </outline>
</glyph>
<glyph name="dollar" format="1">
  <advance width="472"/>
  <unicode hex="0024"/>
  <outline>
    <contour>
      <point x="474" y="492" type="curve" smooth="yes"/>
      <point x="474" y="460"/>
      <point x="463" y="438"/>
      <point x="440" y="438" type="curve" smooth="yes"/>
      <point x="420" y="438"/>
      <point x="408" y="454"/>
      <point x="408" y="477" type="curve" smooth="yes"/>
      <point x="408" y="490"/>
      <point x="411" y="502"/>
      <point x="414" y="515" type="curve" smooth="yes"/>
      <point x="414" y="518"/>
      <point x="415" y="522"/>
      <point x="415" y="526" type="curve" smooth="yes"/>
      <point x="415" y="543"/>
      <point x="406" y="558"/>
      <point x="388" y="569" type="curve" smooth="yes"/>
      <point x="380" y="574"/>
      <point x="377" y="573"/>
      <point x="374" y="559" type="curve" smooth="yes"/>
      <point x="322" y="303" type="line"/>
      <point x="383" y="245"/>
      <point x="412" y="195"/>
      <point x="412" y="141" type="curve" smooth="yes"/>
      <point x="412" y="59"/>
      <point x="357" y="0"/>
      <point x="267" y="-13" type="curve" smooth="yes"/>
      <point x="261" y="-14"/>
      <point x="256" y="-16"/>
      <point x="253" y="-30" type="curve" smooth="yes"/>
      <point x="242" y="-88" type="line" smooth="yes"/>
      <point x="241" y="-92"/>
      <point x="235" y="-95"/>
      <point x="228" y="-95" type="curve" smooth="yes"/>
      <point x="221" y="-95"/>
      <point x="218" y="-92"/>
      <point x="219" y="-88" type="curve" smooth="yes"/>
      <point x="230" y="-29" type="line" smooth="yes"/>
      <point x="230" y="-23"/>
      <point x="230" y="-17"/>
      <point x="221" y="-16" type="curve" smooth="yes"/>
      <point x="209" y="-16"/>
      <point x="209" y="-16"/>
      <point x="195" y="-14" type="curve" smooth="yes"/>
      <point x="189" y="-15"/>
      <point x="186" y="-20"/>
      <point x="183" y="-25" type="curve" smooth="yes"/>
      <point x="168" y="-89" type="line" smooth="yes"/>
      <point x="166" y="-93"/>
      <point x="160" y="-95"/>
      <point x="154" y="-94" type="curve" smooth="yes"/>
      <point x="149" y="-93"/>
      <point x="144" y="-91"/>
      <point x="146" y="-87" type="curve" smooth="yes"/>
      <point x="162" y="-6" type="line"/>
      <point x="107" y="15"/>
      <point x="69" y="57"/>
      <point x="69" y="106" type="curve" smooth="yes"/>
      <point x="69" y="134"/>
      <point x="87" y="153"/>
      <point x="110" y="153" type="curve" smooth="yes"/>
      <point x="130" y="153"/>
      <point x="145" y="137"/>
      <point x="145" y="115" type="curve" smooth="yes"/>
      <point x="145" y="102"/>
      <point x="141" y="88"/>
      <point x="141" y="74" type="curve" smooth="yes"/>
      <point x="141" y="53"/>
      <point x="149" y="38"/>
      <point x="168" y="23" type="curve"/>
      <point x="221" y="279" type="line" smooth="yes"/>
      <point x="224" y="292"/>
      <point x="224" y="300"/>
      <point x="217" y="308" type="curve" smooth="yes"/>
      <point x="174" y="353"/>
      <point x="156" y="395"/>
      <point x="156" y="448" type="curve" smooth="yes"/>
      <point x="156" y="531"/>
      <point x="205" y="591"/>
      <point x="288" y="606" type="curve"/>
      <point x="299" y="664" type="line" smooth="yes"/>
      <point x="300" y="668"/>
      <point x="307" y="672"/>
      <point x="314" y="672" type="curve" smooth="yes"/>
      <point x="320" y="672"/>
      <point x="325" y="669"/>
      <point x="323" y="663" type="curve" smooth="yes"/>
      <point x="314" y="617" type="line" smooth="yes"/>
      <point x="313" y="611"/>
      <point x="318" y="609"/>
      <point x="323" y="609" type="curve" smooth="yes"/>
      <point x="332" y="609"/>
      <point x="341" y="609"/>
      <point x="349" y="608" type="curve" smooth="yes"/>
      <point x="356" y="608"/>
      <point x="362" y="611"/>
      <point x="363" y="617" type="curve" smooth="yes"/>
      <point x="372" y="664" type="line" smooth="yes"/>
      <point x="372" y="669"/>
      <point x="379" y="672"/>
      <point x="384" y="672" type="curve" smooth="yes"/>
      <point x="390" y="672"/>
      <point x="397" y="669"/>
      <point x="395" y="663" type="curve" smooth="yes"/>
      <point x="386" y="615" type="line" smooth="yes"/>
      <point x="385" y="608"/>
      <point x="386" y="602"/>
      <point x="395" y="599" type="curve" smooth="yes"/>
      <point x="444" y="582"/>
      <point x="474" y="544"/>
    </contour>
    <contour>
      <point x="352" y="564" type="line" smooth="yes"/>
      <point x="355" y="578"/>
      <point x="353" y="582"/>
      <point x="345" y="583" type="curve" smooth="yes"/>
      <point x="335" y="584"/>
      <point x="325" y="584"/>
      <point x="315" y="583" type="curve" smooth="yes"/>
      <point x="310" y="583"/>
      <point x="306" y="580"/>
      <point x="304" y="572" type="curve" smooth="yes"/>
      <point x="261" y="363" type="line"/>
      <point x="273" y="350"/>
      <point x="283" y="342"/>
      <point x="294" y="330" type="curve" smooth="yes"/>
      <point x="298" y="327"/>
      <point x="304" y="328"/>
      <point x="305" y="333" type="curve" smooth="yes"/>
    </contour>
    <contour>
      <point x="278" y="558" type="line" smooth="yes"/>
      <point x="281" y="571"/>
      <point x="280" y="577"/>
      <point x="267" y="570" type="curve" smooth="yes"/>
      <point x="230" y="549"/>
      <point x="210" y="515"/>
      <point x="210" y="475" type="curve" smooth="yes"/>
      <point x="210" y="452"/>
      <point x="216" y="431"/>
      <point x="230" y="407" type="curve" smooth="yes"/>
      <point x="233" y="402"/>
      <point x="242" y="386"/>
      <point x="245" y="400" type="curve" smooth="yes"/>
    </contour>
    <contour>
      <point x="346" y="119" type="curve" smooth="yes"/>
      <point x="346" y="150"/>
      <point x="336" y="173"/>
      <point x="311" y="206" type="curve" smooth="yes"/>
      <point x="308" y="209"/>
      <point x="303" y="211"/>
      <point x="301" y="203" type="curve" smooth="yes"/>
      <point x="266" y="31" type="line" smooth="yes"/>
      <point x="266" y="23"/>
      <point x="265" y="13"/>
      <point x="271" y="15" type="curve" smooth="yes"/>
      <point x="316" y="31"/>
      <point x="346" y="71"/>
    </contour>
    <contour>
      <point x="282" y="220" type="line" smooth="yes"/>
      <point x="284" y="230"/>
      <point x="284" y="237"/>
      <point x="278" y="244" type="curve" smooth="yes"/>
      <point x="270" y="252"/>
      <point x="262" y="261"/>
      <point x="254" y="268" type="curve" smooth="yes"/>
      <point x="248" y="271"/>
      <point x="245" y="270"/>
      <point x="240" y="256" type="curve" smooth="yes"/>
      <point x="193" y="29" type="line"/>
      <point x="195" y="16"/>
      <point x="191" y="14"/>
      <point x="201" y="12" type="curve" smooth="yes"/>
      <point x="213" y="10"/>
      <point x="219" y="9"/>
      <point x="232" y="9" type="curve" smooth="yes"/>
      <point x="238" y="9"/>
      <point x="237" y="16"/>
      <point x="242" y="25" type="curve" smooth="yes"/>
    </contour>
  </outline>
</glyph>
<glyph name="hyphen" format="1">
  <advance width="332"/>
  <unicode hex="002D"/>
  <outline>
    <contour>
      <point x="305" y="226" type="curve" smooth="yes"/>
      <point x="303" y="210"/>
      <point x="301" y="201"/>
      <point x="299" y="193" type="curve" smooth="yes"/>
      <point x="297" y="187"/>
      <point x="295" y="182"/>
      <point x="286" y="184" type="curve" smooth="yes"/>
      <point x="78" y="184" type="line" smooth="yes"/>
      <point x="57" y="184"/>
      <point x="57" y="183"/>
      <point x="60" y="206" type="curve" smooth="yes"/>
      <point x="61" y="218"/>
      <point x="63" y="222"/>
      <point x="64" y="226" type="curve" smooth="yes"/>
      <point x="68" y="237"/>
      <point x="66" y="239"/>
      <point x="85" y="239" type="curve" smooth="yes"/>
      <point x="294" y="239" type="line" smooth="yes"/>
      <point x="303" y="239"/>
      <point x="307" y="238"/>
    </contour>
  </outline>
</glyph>
<glyph name="zero" format="1">
  <advance width="432"/>
  <unicode hex="0030"/>
  <outline>
    <contour>
      <point x="412" y="288" type="curve" smooth="yes"/>
      <point x="412" y="222"/>
      <point x="392" y="160"/>
      <point x="355" y="111" type="curve" smooth="yes"/>
      <point x="324" y="69"/>
      <point x="269" y="23"/>
      <point x="217" y="0" type="curve" smooth="yes"/>
      <point x="194" y="-10"/>
      <point x="173" y="-16"/>
      <point x="158" y="-16" type="curve" smooth="yes"/>
      <point x="110" y="-16"/>
      <point x="60" y="70"/>
      <point x="60" y="161" type="curve" smooth="yes"/>
      <point x="60" y="253"/>
      <point x="113" y="344"/>
      <point x="203" y="407" type="curve" smooth="yes"/>
      <point x="242" y="434"/>
      <point x="286" y="454"/>
      <point x="312" y="454" type="curve" smooth="yes"/>
      <point x="360" y="454"/>
      <point x="412" y="374"/>
    </contour>
    <contour>
      <point x="337" y="274" type="curve" smooth="yes"/>
      <point x="337" y="349"/>
      <point x="301" y="404"/>
      <point x="259" y="404" type="curve" smooth="yes"/>
      <point x="196" y="404"/>
      <point x="136" y="289"/>
      <point x="136" y="158" type="curve" smooth="yes"/>
      <point x="136" y="85"/>
      <point x="169" y="31"/>
      <point x="205" y="31" type="curve" smooth="yes"/>
      <point x="272" y="31"/>
      <point x="337" y="145"/>
    </contour>
  </outline>
</glyph>
<glyph name="three" format="1">
  <advance width="427"/>
  <unicode hex="0033"/>
  <outline>
    <contour>
      <point x="421" y="368" type="curve" smooth="yes"/>
      <point x="421" y="303"/>
      <point x="341" y="252"/>
      <point x="293" y="230" type="curve" smooth="yes"/>
      <point x="287" y="227"/>
      <point x="288" y="221"/>
      <point x="293" y="221" type="curve" smooth="yes"/>
      <point x="314" y="216"/>
      <point x="337" y="203"/>
      <point x="352" y="189" type="curve" smooth="yes"/>
      <point x="369" y="172"/>
      <point x="385" y="148"/>
      <point x="385" y="115" type="curve" smooth="yes"/>
      <point x="385" y="-54"/>
      <point x="192" y="-184"/>
      <point x="67" y="-184" type="curve" smooth="yes"/>
      <point x="16" y="-184"/>
      <point x="-1" y="-165"/>
      <point x="-1" y="-143" type="curve" smooth="yes"/>
      <point x="-1" y="-127"/>
      <point x="7" y="-106"/>
      <point x="26" y="-106" type="curve" smooth="yes"/>
      <point x="45" y="-106"/>
      <point x="62" y="-118"/>
      <point x="78" y="-126" type="curve" smooth="yes"/>
      <point x="95" y="-135"/>
      <point x="116" y="-142"/>
      <point x="134" y="-142" type="curve" smooth="yes"/>
      <point x="208" y="-142"/>
      <point x="305" y="-46"/>
      <point x="305" y="83" type="curve" smooth="yes"/>
      <point x="305" y="139"/>
      <point x="278" y="181"/>
      <point x="233" y="181" type="curve" smooth="yes"/>
      <point x="212" y="181"/>
      <point x="198" y="177"/>
      <point x="177" y="168" type="curve" smooth="yes"/>
      <point x="169" y="165"/>
      <point x="161" y="167"/>
      <point x="160" y="174" type="curve" smooth="yes"/>
      <point x="160" y="181"/>
      <point x="163" y="189"/>
      <point x="170" y="192" type="curve" smooth="yes"/>
      <point x="230" y="219"/>
      <point x="340" y="271"/>
      <point x="340" y="351" type="curve" smooth="yes"/>
      <point x="340" y="385"/>
      <point x="315" y="408"/>
      <point x="283" y="408" type="curve" smooth="yes"/>
      <point x="247" y="408"/>
      <point x="198" y="385"/>
      <point x="137" y="323" type="curve" smooth="yes"/>
      <point x="131" y="317"/>
      <point x="111" y="327"/>
      <point x="120" y="339" type="curve" smooth="yes"/>
      <point x="199" y="426"/>
      <point x="262" y="452"/>
      <point x="319" y="452" type="curve" smooth="yes"/>
      <point x="419" y="452"/>
      <point x="421" y="379"/>
    </contour>
  </outline>
</glyph>
<glyph name="four" format="1">
  <advance width="448"/>
  <unicode hex="0034"/>
  <outline>
    <contour>
      <point x="430" y="62" type="curve" smooth="yes"/>
      <point x="428" y="49"/>
      <point x="424" y="36"/>
      <point x="415" y="35" type="curve" smooth="yes"/>
      <point x="354" y="35" type="line" smooth="yes"/>
      <point x="338" y="35"/>
      <point x="333" y="27"/>
      <point x="331" y="23" type="curve" smooth="yes"/>
      <point x="291" y="-170" type="line" smooth="yes"/>
      <point x="289" y="-182"/>
      <point x="278" y="-186"/>
      <point x="271" y="-184" type="curve" smooth="yes"/>
      <point x="236" y="-184" type="line" smooth="yes"/>
      <point x="226" y="-184"/>
      <point x="215" y="-182"/>
      <point x="218" y="-169" type="curve" smooth="yes"/>
      <point x="257" y="26" type="line" smooth="yes"/>
      <point x="260" y="33"/>
      <point x="249" y="35"/>
      <point x="247" y="35" type="curve" smooth="yes"/>
      <point x="75" y="35" type="line" smooth="yes"/>
      <point x="71" y="35"/>
      <point x="64" y="38"/>
      <point x="64" y="44" type="curve" smooth="yes"/>
      <point x="64" y="58"/>
      <point x="61" y="71"/>
      <point x="70" y="82" type="curve" smooth="yes"/>
      <point x="190" y="230"/>
      <point x="283" y="343"/>
      <point x="386" y="444" type="curve"/>
      <point x="401" y="445" type="line" smooth="yes"/>
      <point x="410" y="446"/>
      <point x="416" y="441"/>
      <point x="414" y="431" type="curve" smooth="yes"/>
      <point x="391" y="316"/>
      <point x="375" y="236"/>
      <point x="347" y="101" type="curve" smooth="yes"/>
      <point x="346" y="94"/>
      <point x="347" y="91"/>
      <point x="351" y="90" type="curve" smooth="yes"/>
      <point x="419" y="90" type="line" smooth="yes"/>
      <point x="425" y="90"/>
      <point x="434" y="81"/>
    </contour>
    <contour>
      <point x="331" y="342" type="line"/>
      <point x="261" y="274"/>
      <point x="165" y="156"/>
      <point x="125" y="103" type="curve" smooth="yes"/>
      <point x="121" y="98"/>
      <point x="128" y="95"/>
      <point x="131" y="94" type="curve" smooth="yes"/>
      <point x="254" y="94" type="line" smooth="yes"/>
      <point x="259" y="94"/>
      <point x="268" y="94"/>
      <point x="269" y="101" type="curve" smooth="yes"/>
      <point x="292" y="191"/>
      <point x="308" y="252"/>
      <point x="330" y="342" type="curve"/>
    </contour>
  </outline>
</glyph>
<glyph name="five" format="1">
  <advance width="432"/>
  <unicode hex="0035"/>
  <outline>
    <contour>
      <point x="387" y="466" type="curve" smooth="yes"/>
      <point x="378" y="435"/>
      <point x="370" y="408"/>
      <point x="362" y="378" type="curve" smooth="yes"/>
      <point x="359" y="369"/>
      <point x="356" y="366"/>
      <point x="346" y="366" type="curve" smooth="yes"/>
      <point x="297" y="367"/>
      <point x="248" y="370"/>
      <point x="200" y="370" type="curve" smooth="yes"/>
      <point x="197" y="370"/>
      <point x="192" y="370"/>
      <point x="190" y="363" type="curve" smooth="yes"/>
      <point x="184" y="339"/>
      <point x="180" y="324"/>
      <point x="174" y="291" type="curve" smooth="yes"/>
      <point x="173" y="288"/>
      <point x="176" y="285"/>
      <point x="186" y="283" type="curve" smooth="yes"/>
      <point x="243" y="274"/>
      <point x="291" y="248"/>
      <point x="316" y="225" type="curve" smooth="yes"/>
      <point x="354" y="192"/>
      <point x="363" y="145"/>
      <point x="363" y="109" type="curve" smooth="yes"/>
      <point x="363" y="73"/>
      <point x="356" y="12"/>
      <point x="288" y="-63" type="curve" smooth="yes"/>
      <point x="247" y="-108"/>
      <point x="168" y="-172"/>
      <point x="86" y="-172" type="curve" smooth="yes"/>
      <point x="69" y="-172"/>
      <point x="11" y="-167"/>
      <point x="11" y="-135" type="curve" smooth="yes"/>
      <point x="11" y="-119"/>
      <point x="29" y="-86"/>
      <point x="50" y="-86" type="curve" smooth="yes"/>
      <point x="61" y="-86"/>
      <point x="66" y="-88"/>
      <point x="100" y="-103" type="curve" smooth="yes"/>
      <point x="114" y="-109"/>
      <point x="131" y="-116"/>
      <point x="146" y="-116" type="curve" smooth="yes"/>
      <point x="229" y="-116"/>
      <point x="299" y="-27"/>
      <point x="299" y="73" type="curve" smooth="yes"/>
      <point x="299" y="189"/>
      <point x="161" y="219"/>
      <point x="147" y="220" type="curve" smooth="yes"/>
      <point x="125" y="221"/>
      <point x="130" y="229"/>
      <point x="133" y="241" type="curve" smooth="yes"/>
      <point x="148" y="297"/>
      <point x="159" y="349"/>
      <point x="174" y="410" type="curve" smooth="yes"/>
      <point x="182" y="445"/>
      <point x="188" y="441"/>
      <point x="221" y="441" type="curve" smooth="yes"/>
      <point x="222" y="441"/>
      <point x="348" y="437"/>
      <point x="357" y="445" type="curve" smooth="yes"/>
      <point x="362" y="449"/>
      <point x="365" y="461"/>
      <point x="367" y="467" type="curve" smooth="yes"/>
      <point x="369" y="472"/>
      <point x="387" y="474"/>
    </contour>
  </outline>
</glyph>
<glyph name="six" format="1">
  <advance width="463"/>
  <unicode hex="0036"/>
  <outline>
    <contour>
      <point x="497" y="663" type="curve" smooth="yes"/>
      <point x="499" y="657"/>
      <point x="494" y="648"/>
      <point x="487" y="647" type="curve" smooth="yes"/>
      <point x="361" y="612"/>
      <point x="243" y="511"/>
      <point x="187" y="332" type="curve" smooth="yes"/>
      <point x="183" y="320"/>
      <point x="198" y="331"/>
      <point x="205" y="339" type="curve" smooth="yes"/>
      <point x="223" y="362"/>
      <point x="230" y="370"/>
      <point x="253" y="392" type="curve" smooth="yes"/>
      <point x="291" y="429"/>
      <point x="334" y="449"/>
      <point x="348" y="449" type="curve" smooth="yes"/>
      <point x="382" y="449"/>
      <point x="436" y="388"/>
      <point x="436" y="302" type="curve" smooth="yes"/>
      <point x="436" y="151"/>
      <point x="309" y="-9"/>
      <point x="217" y="-9" type="curve" smooth="yes"/>
      <point x="133" y="-9"/>
      <point x="86" y="109"/>
      <point x="86" y="211" type="curve" smooth="yes"/>
      <point x="86" y="341"/>
      <point x="154" y="458"/>
      <point x="247" y="548" type="curve" smooth="yes"/>
      <point x="351" y="649"/>
      <point x="438" y="662"/>
      <point x="486" y="670" type="curve" smooth="yes"/>
      <point x="489" y="670"/>
      <point x="496" y="668"/>
    </contour>
    <contour>
      <point x="362" y="257" type="curve" smooth="yes"/>
      <point x="362" y="331"/>
      <point x="333" y="389"/>
      <point x="305" y="389" type="curve" smooth="yes"/>
      <point x="281" y="389"/>
      <point x="243" y="351"/>
      <point x="219" y="323" type="curve" smooth="yes"/>
      <point x="168" y="262"/>
      <point x="166" y="235"/>
      <point x="166" y="190" type="curve" smooth="yes"/>
      <point x="166" y="97"/>
      <point x="208" y="38"/>
      <point x="254" y="38" type="curve" smooth="yes"/>
      <point x="311" y="38"/>
      <point x="362" y="141"/>
    </contour>
  </outline>
</glyph>
<glyph name="semicolon" format="1">
  <advance width="297"/>
  <unicode hex="003B"/>
  <outline>
    <contour>
      <point x="266" y="373" type="curve" smooth="yes"/>
      <point x="266" y="338"/>
      <point x="243" y="314"/>
      <point x="214" y="314" type="curve" smooth="yes"/>
      <point x="190" y="314"/>
      <point x="172" y="337"/>
      <point x="172" y="366" type="curve" smooth="yes"/>
      <point x="172" y="394"/>
      <point x="191" y="425"/>
      <point x="224" y="425" type="curve" smooth="yes"/>
      <point x="248" y="425"/>
      <point x="266" y="402"/>
    </contour>
    <contour>
      <point x="207" y="23" type="curve" smooth="yes"/>
      <point x="207" y="-55"/>
      <point x="163" y="-120"/>
      <point x="66" y="-178" type="curve" smooth="yes"/>
      <point x="60" y="-181"/>
      <point x="55" y="-180"/>
      <point x="52" y="-176" type="curve" smooth="yes"/>
      <point x="46" y="-164"/>
      <point x="56" y="-157"/>
      <point x="62" y="-152" type="curve" smooth="yes"/>
      <point x="121" y="-114"/>
      <point x="142" y="-81"/>
      <point x="142" y="-46" type="curve" smooth="yes"/>
      <point x="142" y="-31"/>
      <point x="139" y="-24"/>
      <point x="127" y="-2" type="curve" smooth="yes"/>
      <point x="115" y="19"/>
      <point x="111" y="33"/>
      <point x="111" y="47" type="curve" smooth="yes"/>
      <point x="111" y="75"/>
      <point x="130" y="97"/>
      <point x="156" y="97" type="curve" smooth="yes"/>
      <point x="186" y="97"/>
      <point x="207" y="65"/>
    </contour>
  </outline>
</glyph>
<glyph name="less" format="1">
  <advance width="679"/>
  <unicode hex="003C"/>
  <outline>
    <contour>
      <point x="609" y="76" type="line"/>
      <point x="70" y="309" type="line"/>
      <point x="70" y="360" type="line"/>
      <point x="609" y="592" type="line"/>
      <point x="609" y="528" type="line"/>
      <point x="149" y="334" type="line"/>
      <point x="609" y="140" type="line"/>
    </contour>
  </outline>
</glyph>
<glyph name="equal" format="1">
  <advance width="679"/>
  <unicode hex="003D"/>
  <outline>
    <contour>
      <point x="609" y="424" type="line"/>
      <point x="70" y="424" type="line"/>
      <point x="70" y="483" type="line"/>
      <point x="609" y="483" type="line"/>
    </contour>
    <contour>
      <point x="609" y="188" type="line"/>
      <point x="70" y="188" type="line"/>
      <point x="70" y="247" type="line"/>
      <point x="609" y="247" type="line"/>
    </contour>
  </outline>
</glyph>
<glyph name="greater" format="1">
  <advance width="679"/>
  <unicode hex="003E"/>
  <outline>
    <contour>
      <point x="609" y="308" type="line"/>
      <point x="70" y="76" type="line"/>
      <point x="70" y="140" type="line"/>
      <point x="531" y="333" type="line"/>
      <point x="70" y="527" type="line"/>
      <point x="70" y="592" type="line"/>
      <point x="609" y="359" type="line"/>
    </contour>
  </outline>
</glyph>
<glyph name="B" format="1">
  <advance width="646"/>
  <unicode hex="0042"/>
  <outline>
    <contour>
      <point x="635" y="507" type="curve" smooth="yes"/>
      <point x="635" y="436"/>
      <point x="580" y="381"/>
      <point x="490" y="363" type="curve" smooth="yes"/>
      <point x="484" y="362"/>
      <point x="486" y="355"/>
      <point x="490" y="354" type="curve" smooth="yes"/>
      <point x="569" y="326"/>
      <point x="617" y="265"/>
      <point x="617" y="192" type="curve" smooth="yes"/>
      <point x="617" y="71"/>
      <point x="513" y="-4"/>
      <point x="342" y="-3" type="curve" smooth="yes"/>
      <point x="240" y="-2"/>
      <point x="116" y="-2"/>
      <point x="29" y="-3" type="curve" smooth="yes"/>
      <point x="11" y="-3"/>
      <point x="15" y="26"/>
      <point x="31" y="26" type="curve" smooth="yes"/>
      <point x="41" y="26"/>
      <point x="52" y="26"/>
      <point x="62" y="27" type="curve" smooth="yes"/>
      <point x="105" y="33"/>
      <point x="120" y="56"/>
      <point x="135" y="125" type="curve" smooth="yes"/>
      <point x="219" y="520" type="line" smooth="yes"/>
      <point x="229" y="568"/>
      <point x="243" y="622"/>
      <point x="169" y="621" type="curve" smooth="yes"/>
      <point x="160" y="622"/>
      <point x="153" y="620"/>
      <point x="146" y="621" type="curve" smooth="yes"/>
      <point x="141" y="621"/>
      <point x="137" y="625"/>
      <point x="138" y="634" type="curve" smooth="yes"/>
      <point x="139" y="641"/>
      <point x="144" y="646"/>
      <point x="149" y="646" type="curve" smooth="yes"/>
      <point x="431" y="646" type="line" smooth="yes"/>
      <point x="559" y="646"/>
      <point x="635" y="596"/>
    </contour>
    <contour>
      <point x="542" y="515" type="curve" smooth="yes"/>
      <point x="542" y="559"/>
      <point x="523" y="591"/>
      <point x="490" y="605" type="curve" smooth="yes"/>
      <point x="468" y="614"/>
      <point x="438" y="618"/>
      <point x="391" y="618" type="curve" smooth="yes"/>
      <point x="344" y="618" type="line" smooth="yes"/>
      <point x="336" y="618"/>
      <point x="329" y="613"/>
      <point x="326" y="607" type="curve" smooth="yes"/>
      <point x="283" y="396" type="line" smooth="yes"/>
      <point x="281" y="388"/>
      <point x="289" y="382"/>
      <point x="297" y="382" type="curve" smooth="yes"/>
      <point x="344" y="382" type="line" smooth="yes"/>
      <point x="414" y="382"/>
      <point x="446" y="389"/>
      <point x="478" y="407" type="curve" smooth="yes"/>
      <point x="520" y="431"/>
      <point x="542" y="466"/>
    </contour>
    <contour>
      <point x="520" y="204" type="curve" smooth="yes"/>
      <point x="520" y="294"/>
      <point x="452" y="351"/>
      <point x="338" y="351" type="curve" smooth="yes"/>
      <point x="285" y="351" type="line" smooth="yes"/>
      <point x="281" y="351"/>
      <point x="271" y="347"/>
      <point x="271" y="342" type="curve" smooth="yes"/>
      <point x="228" y="139" type="line" smooth="yes"/>
      <point x="225" y="123"/>
      <point x="223" y="110"/>
      <point x="223" y="101" type="curve" smooth="yes"/>
      <point x="223" y="49"/>
      <point x="238" y="29"/>
      <point x="323" y="29" type="curve" smooth="yes"/>
      <point x="384" y="29"/>
      <point x="415" y="36"/>
      <point x="449" y="59" type="curve" smooth="yes"/>
      <point x="493" y="90"/>
      <point x="520" y="143"/>
    </contour>
  </outline>
</glyph>
<glyph name="J" format="1">
  <advance width="338"/>
  <unicode hex="004A"/>
  <outline>
    <contour>
      <point x="414" y="631" type="curve" smooth="yes"/>
      <point x="408" y="613"/>
      <point x="387" y="619"/>
      <point x="373" y="618" type="curve" smooth="yes"/>
      <point x="328" y="613"/>
      <point x="313" y="594"/>
      <point x="301" y="532" type="curve" smooth="yes"/>
      <point x="197" y="-15" type="line" smooth="yes"/>
      <point x="179" y="-112"/>
      <point x="155" y="-159"/>
      <point x="95" y="-208" type="curve" smooth="yes"/>
      <point x="35" y="-258"/>
      <point x="-27" y="-287"/>
      <point x="-106" y="-287" type="curve" smooth="yes"/>
      <point x="-156" y="-287"/>
      <point x="-177" y="-278"/>
      <point x="-177" y="-259" type="curve" smooth="yes"/>
      <point x="-177" y="-251"/>
      <point x="-171" y="-232"/>
      <point x="-162" y="-220" type="curve" smooth="yes"/>
      <point x="-154" y="-209"/>
      <point x="-139" y="-205"/>
      <point x="-127" y="-205" type="curve" smooth="yes"/>
      <point x="-111" y="-205"/>
      <point x="-96" y="-215"/>
      <point x="-81" y="-220" type="curve" smooth="yes"/>
      <point x="-62" y="-226"/>
      <point x="-45" y="-231"/>
      <point x="-25" y="-231" type="curve" smooth="yes"/>
      <point x="25" y="-231"/>
      <point x="55" y="-206"/>
      <point x="73" y="-166" type="curve" smooth="yes"/>
      <point x="80" y="-149"/>
      <point x="85" y="-134"/>
      <point x="92" y="-98" type="curve" smooth="yes"/>
      <point x="211" y="533" type="line" smooth="yes"/>
      <point x="219" y="577"/>
      <point x="230" y="616"/>
      <point x="166" y="620" type="curve" smooth="yes"/>
      <point x="155" y="621"/>
      <point x="144" y="620"/>
      <point x="132" y="621" type="curve" smooth="yes"/>
      <point x="125" y="621"/>
      <point x="122" y="624"/>
      <point x="123" y="632" type="curve" smooth="yes"/>
      <point x="124" y="640"/>
      <point x="127" y="646"/>
      <point x="136" y="646" type="curve" smooth="yes"/>
      <point x="206" y="642"/>
      <point x="341" y="643"/>
      <point x="406" y="646" type="curve" smooth="yes"/>
      <point x="413" y="646"/>
      <point x="417" y="642"/>
    </contour>
  </outline>
</glyph>
<glyph name="L" format="1">
  <advance width="603"/>
  <unicode hex="004C"/>
  <outline>
    <contour>
      <point x="623" y="138" type="curve" smooth="yes"/>
      <point x="609" y="106"/>
      <point x="594" y="53"/>
      <point x="580" y="18" type="curve" smooth="yes"/>
      <point x="578" y="12"/>
      <point x="571" y="-2"/>
      <point x="554" y="-2" type="curve" smooth="yes"/>
      <point x="417" y="-2"/>
      <point x="163" y="2"/>
      <point x="32" y="-1" type="curve" smooth="yes"/>
      <point x="27" y="-2"/>
      <point x="17" y="-2"/>
      <point x="16" y="2" type="curve" smooth="yes"/>
      <point x="12" y="17"/>
      <point x="24" y="25"/>
      <point x="30" y="26" type="curve" smooth="yes"/>
      <point x="39" y="27"/>
      <point x="41" y="26"/>
      <point x="49" y="27" type="curve" smooth="yes"/>
      <point x="98" y="30"/>
      <point x="118" y="53"/>
      <point x="133" y="127" type="curve" smooth="yes"/>
      <point x="218" y="533" type="line" smooth="yes"/>
      <point x="230" y="588"/>
      <point x="233" y="620"/>
      <point x="159" y="620" type="curve" smooth="yes"/>
      <point x="146" y="620"/>
      <point x="130" y="614"/>
      <point x="136" y="635" type="curve" smooth="yes"/>
      <point x="138" y="640"/>
      <point x="141" y="646"/>
      <point x="145" y="646" type="curve" smooth="yes"/>
      <point x="214" y="642"/>
      <point x="353" y="642"/>
      <point x="422" y="646" type="curve" smooth="yes"/>
      <point x="429" y="646"/>
      <point x="431" y="636"/>
      <point x="430" y="631" type="curve" smooth="yes"/>
      <point x="427" y="618"/>
      <point x="416" y="620"/>
      <point x="406" y="620" type="curve" smooth="yes"/>
      <point x="344" y="620"/>
      <point x="324" y="605"/>
      <point x="309" y="532" type="curve" smooth="yes"/>
      <point x="222" y="122" type="line" smooth="yes"/>
      <point x="213" y="79"/>
      <point x="211" y="39"/>
      <point x="270" y="38" type="curve" smooth="yes"/>
      <point x="295" y="38"/>
      <point x="344" y="38"/>
      <point x="373" y="38" type="curve" smooth="yes"/>
      <point x="433" y="39"/>
      <point x="475" y="47"/>
      <point x="513" y="68" type="curve" smooth="yes"/>
      <point x="546" y="86"/>
      <point x="568" y="105"/>
      <point x="601" y="146" type="curve" smooth="yes"/>
      <point x="607" y="154"/>
      <point x="627" y="152"/>
    </contour>
  </outline>
</glyph>
<glyph name="O" format="1">
  <advance width="819"/>
  <unicode hex="004F"/>
  <outline>
    <contour>
      <point x="782" y="358" type="curve" smooth="yes"/>
      <point x="782" y="150"/>
      <point x="606" y="-18"/>
      <point x="387" y="-18" type="curve" smooth="yes"/>
      <point x="211" y="-18"/>
      <point x="88" y="114"/>
      <point x="88" y="287" type="curve" smooth="yes"/>
      <point x="88" y="491"/>
      <point x="267" y="662"/>
      <point x="480" y="662" type="curve" smooth="yes"/>
      <point x="656" y="662"/>
      <point x="782" y="529"/>
    </contour>
    <contour>
      <point x="688" y="389" type="curve" smooth="yes"/>
      <point x="688" y="532"/>
      <point x="609" y="632"/>
      <point x="481" y="631" type="curve" smooth="yes"/>
      <point x="406" y="631"/>
      <point x="342" y="605"/>
      <point x="295" y="555" type="curve" smooth="yes"/>
      <point x="226" y="482"/>
      <point x="182" y="369"/>
      <point x="182" y="262" type="curve" smooth="yes"/>
      <point x="182" y="109"/>
      <point x="256" y="14"/>
      <point x="387" y="13" type="curve" smooth="yes"/>
      <point x="556" y="12"/>
      <point x="688" y="176"/>
    </contour>
  </outline>
</glyph>
<glyph name="R" format="1">
  <advance width="624"/>
  <unicode hex="0052"/>
  <outline>
    <contour>
      <point x="657" y="-4" type="curve" smooth="yes"/>
      <point x="649" y="-7"/>
      <point x="635" y="-12"/>
      <point x="622" y="-12" type="curve" smooth="yes"/>
      <point x="527" y="-12"/>
      <point x="467" y="2"/>
      <point x="413" y="86" type="curve" smooth="yes"/>
      <point x="392" y="120"/>
      <point x="381" y="159"/>
      <point x="366" y="195" type="curve" smooth="yes"/>
      <point x="344" y="247"/>
      <point x="341" y="253"/>
      <point x="327" y="281" type="curve"/>
      <point x="302" y="279"/>
      <point x="284" y="278"/>
      <point x="261" y="278" type="curve" smooth="yes"/>
      <point x="253" y="278"/>
      <point x="247" y="271"/>
      <point x="245" y="263" type="curve" smooth="yes"/>
      <point x="214" y="112" type="line" smooth="yes"/>
      <point x="202" y="53"/>
      <point x="207" y="23"/>
      <point x="282" y="23" type="curve" smooth="yes"/>
      <point x="299" y="23"/>
      <point x="305" y="22"/>
      <point x="300" y="5" type="curve" smooth="yes"/>
      <point x="299" y="1"/>
      <point x="293" y="-2"/>
      <point x="285" y="-2" type="curve" smooth="yes"/>
      <point x="207" y="1"/>
      <point x="59" y="1"/>
      <point x="6" y="-2" type="curve" smooth="yes"/>
      <point x="-7" y="-3"/>
      <point x="2" y="25"/>
      <point x="12" y="24" type="curve" smooth="yes"/>
      <point x="20" y="24" type="line" smooth="yes"/>
      <point x="88" y="24"/>
      <point x="107" y="40"/>
      <point x="123" y="113" type="curve" smooth="yes"/>
      <point x="213" y="533" type="line" smooth="yes"/>
      <point x="224" y="584"/>
      <point x="221" y="619"/>
      <point x="153" y="619" type="curve" smooth="yes"/>
      <point x="142" y="619"/>
      <point x="127" y="619"/>
      <point x="130" y="633" type="curve" smooth="yes"/>
      <point x="132" y="645"/>
      <point x="141" y="647"/>
      <point x="147" y="647" type="curve" smooth="yes"/>
      <point x="215" y="644"/>
      <point x="344" y="646"/>
      <point x="411" y="646" type="curve" smooth="yes"/>
      <point x="528" y="645"/>
      <point x="607" y="583"/>
      <point x="607" y="486" type="curve" smooth="yes"/>
      <point x="607" y="392"/>
      <point x="535" y="322"/>
      <point x="422" y="298" type="curve" smooth="yes"/>
      <point x="417" y="297"/>
      <point x="413" y="294"/>
      <point x="417" y="288" type="curve" smooth="yes"/>
      <point x="426" y="275"/>
      <point x="433" y="262"/>
      <point x="440" y="248" type="curve" smooth="yes"/>
      <point x="455" y="214"/>
      <point x="470" y="181"/>
      <point x="487" y="147" type="curve" smooth="yes"/>
      <point x="513" y="96"/>
      <point x="537" y="71"/>
      <point x="569" y="46" type="curve" smooth="yes"/>
      <point x="594" y="26"/>
      <point x="625" y="15"/>
      <point x="656" y="15" type="curve" smooth="yes"/>
      <point x="666" y="15"/>
      <point x="662" y="-2"/>
    </contour>
    <contour>
      <point x="474" y="585" type="curve" smooth="yes"/>
      <point x="437" y="615"/>
      <point x="385" y="615"/>
      <point x="341" y="615" type="curve" smooth="yes"/>
      <point x="326" y="615"/>
      <point x="317" y="603"/>
      <point x="316" y="597" type="curve" smooth="yes"/>
      <point x="257" y="318" type="line" smooth="yes"/>
      <point x="256" y="314"/>
      <point x="264" y="308"/>
      <point x="272" y="308" type="curve" smooth="yes"/>
      <point x="323" y="308"/>
      <point x="340" y="309"/>
      <point x="364" y="316" type="curve" smooth="yes"/>
      <point x="387" y="322"/>
      <point x="408" y="334"/>
      <point x="428" y="346" type="curve" smooth="yes"/>
      <point x="503" y="390"/>
      <point x="550" y="524"/>
    </contour>
  </outline>
</glyph>
<glyph name="U" format="1">
  <advance width="740"/>
  <unicode hex="0055"/>
  <outline>
    <contour>
      <point x="804" y="633" type="curve" smooth="yes"/>
      <point x="802" y="625"/>
      <point x="796" y="620"/>
      <point x="790" y="621" type="curve" smooth="yes"/>
      <point x="732" y="614"/>
      <point x="708" y="602"/>
      <point x="691" y="510" type="curve" smooth="yes"/>
      <point x="640" y="236" type="line" smooth="yes"/>
      <point x="629" y="175"/>
      <point x="618" y="147"/>
      <point x="595" y="109" type="curve" smooth="yes"/>
      <point x="539" y="17"/>
      <point x="447" y="-18"/>
      <point x="338" y="-18" type="curve" smooth="yes"/>
      <point x="220" y="-18"/>
      <point x="152" y="15"/>
      <point x="107" y="83" type="curve" smooth="yes"/>
      <point x="66" y="146"/>
      <point x="74" y="202"/>
      <point x="88" y="270" type="curve" smooth="yes"/>
      <point x="143" y="528" type="line" smooth="yes"/>
      <point x="154" y="580"/>
      <point x="157" y="621"/>
      <point x="85" y="621" type="curve" smooth="yes"/>
      <point x="68" y="621" type="line" smooth="yes"/>
      <point x="63" y="621"/>
      <point x="58" y="630"/>
      <point x="59" y="636" type="curve" smooth="yes"/>
      <point x="61" y="643"/>
      <point x="68" y="648"/>
      <point x="73" y="647" type="curve" smooth="yes"/>
      <point x="136" y="644"/>
      <point x="268" y="644"/>
      <point x="339" y="647" type="curve" smooth="yes"/>
      <point x="347" y="647"/>
      <point x="352" y="640"/>
      <point x="351" y="634" type="curve" smooth="yes"/>
      <point x="351" y="621"/>
      <point x="344" y="619"/>
      <point x="333" y="620" type="curve" smooth="yes"/>
      <point x="265" y="623"/>
      <point x="251" y="609"/>
      <point x="235" y="532" type="curve" smooth="yes"/>
      <point x="178" y="266" type="line" smooth="yes"/>
      <point x="170" y="228"/>
      <point x="166" y="194"/>
      <point x="166" y="167" type="curve" smooth="yes"/>
      <point x="166" y="74"/>
      <point x="235" y="12"/>
      <point x="355" y="12" type="curve" smooth="yes"/>
      <point x="518" y="12"/>
      <point x="579" y="110"/>
      <point x="605" y="246" type="curve" smooth="yes"/>
      <point x="656" y="517" type="line" smooth="yes"/>
      <point x="670" y="593"/>
      <point x="651" y="621"/>
      <point x="568" y="621" type="curve" smooth="yes"/>
      <point x="562" y="621"/>
      <point x="562" y="628"/>
      <point x="563" y="635" type="curve" smooth="yes"/>
      <point x="565" y="643"/>
      <point x="569" y="648"/>
      <point x="573" y="647" type="curve" smooth="yes"/>
      <point x="621" y="646"/>
      <point x="721" y="642"/>
      <point x="795" y="648" type="curve" smooth="yes"/>
      <point x="803" y="649"/>
      <point x="804" y="639"/>
    </contour>
  </outline>
</glyph>
<glyph name="V" format="1">
  <advance width="639"/>
  <unicode hex="0056"/>
  <outline>
    <contour>
      <point x="738" y="647" type="curve" smooth="yes"/>
      <point x="747" y="647"/>
      <point x="745" y="623"/>
      <point x="733" y="622" type="curve" smooth="yes"/>
      <point x="689" y="608"/>
      <point x="660" y="579"/>
      <point x="617" y="529" type="curve" smooth="yes"/>
      <point x="148" y="-16" type="line" smooth="yes"/>
      <point x="146" y="-19"/>
      <point x="135" y="-22"/>
      <point x="123" y="-22" type="curve" smooth="yes"/>
      <point x="114" y="-22"/>
      <point x="106" y="-14"/>
      <point x="106" y="-5" type="curve" smooth="yes"/>
      <point x="133" y="533" type="line" smooth="yes"/>
      <point x="136" y="587"/>
      <point x="128" y="620"/>
      <point x="65" y="620" type="curve" smooth="yes"/>
      <point x="60" y="620" type="line" smooth="yes"/>
      <point x="50" y="618"/>
      <point x="53" y="647"/>
      <point x="64" y="647" type="curve" smooth="yes"/>
      <point x="180" y="644"/>
      <point x="257" y="644"/>
      <point x="323" y="647" type="curve" smooth="yes"/>
      <point x="332" y="647"/>
      <point x="329" y="620"/>
      <point x="315" y="620" type="curve" smooth="yes"/>
      <point x="305" y="619"/>
      <point x="287" y="622"/>
      <point x="272" y="619" type="curve" smooth="yes"/>
      <point x="236" y="613"/>
      <point x="224" y="582"/>
      <point x="221" y="533" type="curve" smooth="yes"/>
      <point x="196" y="113" type="line" smooth="yes"/>
      <point x="195" y="98"/>
      <point x="197" y="90"/>
      <point x="211" y="107" type="curve" smooth="yes"/>
      <point x="559" y="517" type="line" smooth="yes"/>
      <point x="591" y="554"/>
      <point x="599" y="570"/>
      <point x="599" y="587" type="curve" smooth="yes"/>
      <point x="599" y="618"/>
      <point x="575" y="618"/>
      <point x="553" y="619" type="curve" smooth="yes"/>
      <point x="545" y="620"/>
      <point x="542" y="620"/>
      <point x="535" y="622" type="curve" smooth="yes"/>
      <point x="529" y="622"/>
      <point x="526" y="628"/>
      <point x="526" y="635" type="curve" smooth="yes"/>
      <point x="527" y="643"/>
      <point x="532" y="647"/>
      <point x="537" y="647" type="curve" smooth="yes"/>
      <point x="617" y="645"/>
      <point x="662" y="645"/>
    </contour>
  </outline>
</glyph>
<glyph name="asciicircum" format="1">
  <advance width="434"/>
  <unicode hex="005E"/>
  <outline>
    <contour>
      <point x="501" y="334" type="line"/>
      <point x="450" y="334" type="line"/>
      <point x="278" y="627" type="line"/>
      <point x="105" y="334" type="line"/>
      <point x="54" y="334" type="line"/>
      <point x="271" y="700" type="line"/>
      <point x="287" y="700" type="line"/>
    </contour>
  </outline>
</glyph>
<glyph name="underscore" format="1">
  <advance width="509"/>
  <unicode hex="005F"/>
  <outline>
    <contour>
      <point x="517" y="-189" type="curve" smooth="yes"/>
      <point x="521" y="-204"/>
      <point x="517" y="-194"/>
      <point x="516" y="-211" type="curve" smooth="yes"/>
      <point x="514" y="-215"/>
      <point x="509" y="-223"/>
      <point x="502" y="-222" type="curve" smooth="yes"/>
      <point x="5" y="-222" type="line" smooth="yes"/>
      <point x="-2" y="-223"/>
      <point x="-10" y="-219"/>
      <point x="-9" y="-209" type="curve" smooth="yes"/>
      <point x="-9" y="-198"/>
      <point x="-7" y="-209"/>
      <point x="-6" y="-199" type="curve" smooth="yes"/>
      <point x="-6" y="-193"/>
      <point x="-3" y="-181"/>
      <point x="14" y="-181" type="curve" smooth="yes"/>
      <point x="137" y="-181"/>
      <point x="486" y="-183"/>
      <point x="503" y="-180" type="curve" smooth="yes"/>
      <point x="510" y="-182"/>
      <point x="515" y="-183"/>
    </contour>
  </outline>
</glyph>
<glyph name="b" format="1">
  <advance width="415"/>
  <unicode hex="0062"/>
  <outline>
    <contour>
      <point x="357" y="405" type="curve" smooth="yes"/>
      <point x="444" y="255"/>
      <point x="315" y="-12"/>
      <point x="161" y="-12" type="curve" smooth="yes"/>
      <point x="62" y="-12"/>
      <point x="53" y="68"/>
      <point x="68" y="143" type="curve" smooth="yes"/>
      <point x="105" y="326"/>
      <point x="133" y="501"/>
      <point x="176" y="683" type="curve" smooth="yes"/>
      <point x="177" y="687"/>
      <point x="177" y="694"/>
      <point x="171" y="694" type="curve" smooth="yes"/>
      <point x="166" y="694"/>
      <point x="149" y="686"/>
      <point x="133" y="677" type="curve" smooth="yes"/>
      <point x="113" y="668"/>
      <point x="115" y="690"/>
      <point x="124" y="695" type="curve" smooth="yes"/>
      <point x="211" y="746" type="line" smooth="yes"/>
      <point x="247" y="767"/>
      <point x="258" y="762"/>
      <point x="251" y="727" type="curve" smooth="yes"/>
      <point x="165" y="300" type="line" smooth="yes"/>
      <point x="162" y="286"/>
      <point x="168" y="286"/>
      <point x="174" y="292" type="curve" smooth="yes"/>
      <point x="201" y="322"/>
      <point x="292" y="430"/>
      <point x="330" y="430" type="curve" smooth="yes"/>
      <point x="339" y="430"/>
      <point x="349" y="419"/>
    </contour>
    <contour>
      <point x="317" y="264" type="curve" smooth="yes"/>
      <point x="317" y="328"/>
      <point x="302" y="369"/>
      <point x="284" y="369" type="curve" smooth="yes"/>
      <point x="269" y="369"/>
      <point x="241" y="344"/>
      <point x="216" y="317" type="curve" smooth="yes"/>
      <point x="195" y="294"/>
      <point x="174" y="269"/>
      <point x="162" y="255" type="curve" smooth="yes"/>
      <point x="153" y="245"/>
      <point x="157" y="251"/>
      <point x="154" y="236" type="curve" smooth="yes"/>
      <point x="135" y="142" type="line" smooth="yes"/>
      <point x="127" y="101"/>
      <point x="112" y="14"/>
      <point x="175" y="14" type="curve" smooth="yes"/>
      <point x="264" y="14"/>
      <point x="317" y="195"/>
    </contour>
  </outline>
</glyph>
<glyph name="c" format="1">
  <advance width="300"/>
  <unicode hex="0063"/>
  <outline>
    <contour>
      <point x="316" y="389" type="curve" smooth="yes"/>
      <point x="316" y="369"/>
      <point x="304" y="354"/>
      <point x="287" y="354" type="curve" smooth="yes"/>
      <point x="267" y="354"/>
      <point x="255" y="362"/>
      <point x="238" y="372" type="curve" smooth="yes"/>
      <point x="226" y="378"/>
      <point x="219" y="380"/>
      <point x="211" y="380" type="curve" smooth="yes"/>
      <point x="189" y="380"/>
      <point x="168" y="358"/>
      <point x="148" y="309" type="curve" smooth="yes"/>
      <point x="128" y="258"/>
      <point x="53" y="37"/>
      <point x="159" y="37" type="curve" smooth="yes"/>
      <point x="189" y="37"/>
      <point x="226" y="60"/>
      <point x="259" y="99" type="curve" smooth="yes"/>
      <point x="260" y="103"/>
      <point x="270" y="101"/>
      <point x="273" y="97" type="curve" smooth="yes"/>
      <point x="280" y="92"/>
      <point x="282" y="86"/>
      <point x="280" y="81" type="curve" smooth="yes"/>
      <point x="230" y="22"/>
      <point x="169" y="-12"/>
      <point x="124" y="-12" type="curve" smooth="yes"/>
      <point x="71" y="-12"/>
      <point x="35" y="32"/>
      <point x="35" y="98" type="curve" smooth="yes"/>
      <point x="35" y="212"/>
      <point x="127" y="429"/>
      <point x="262" y="429" type="curve" smooth="yes"/>
      <point x="294" y="429"/>
      <point x="316" y="414"/>
    </contour>
  </outline>
</glyph>
<glyph name="h" format="1">
  <advance width="457"/>
  <unicode hex="0068"/>
  <outline>
    <contour>
      <point x="440" y="101" type="curve" smooth="yes"/>
      <point x="392" y="37"/>
      <point x="333" y="-12"/>
      <point x="303" y="-12" type="curve" smooth="yes"/>
      <point x="258" y="-12"/>
      <point x="278" y="74"/>
      <point x="283" y="93" type="curve" smooth="yes"/>
      <point x="336" y="301" type="line" smooth="yes"/>
      <point x="340" y="315"/>
      <point x="357" y="379"/>
      <point x="331" y="379" type="curve" smooth="yes"/>
      <point x="301" y="379"/>
      <point x="177" y="208"/>
      <point x="150" y="169" type="curve"/>
      <point x="132" y="81"/>
      <point x="126" y="49"/>
      <point x="122" y="33" type="curve" smooth="yes"/>
      <point x="118" y="14"/>
      <point x="120" y="-7"/>
      <point x="96" y="-7" type="curve" smooth="yes"/>
      <point x="85" y="-7"/>
      <point x="75" y="-8"/>
      <point x="58" y="-7" type="curve" smooth="yes"/>
      <point x="48" y="-8"/>
      <point x="50" y="8"/>
      <point x="52" y="14" type="curve" smooth="yes"/>
      <point x="182" y="672" type="line" smooth="yes"/>
      <point x="183" y="676"/>
      <point x="188" y="690"/>
      <point x="179" y="690" type="curve" smooth="yes"/>
      <point x="175" y="690"/>
      <point x="156" y="681"/>
      <point x="127" y="665" type="curve" smooth="yes"/>
      <point x="122" y="661"/>
      <point x="119" y="663"/>
      <point x="117" y="670" type="curve" smooth="yes"/>
      <point x="115" y="677"/>
      <point x="117" y="685"/>
      <point x="119" y="686" type="curve" smooth="yes"/>
      <point x="220" y="744" type="line" smooth="yes"/>
      <point x="233" y="751"/>
      <point x="243" y="755"/>
      <point x="250" y="755" type="curve" smooth="yes"/>
      <point x="268" y="755"/>
      <point x="263" y="743"/>
      <point x="263" y="732" type="curve" smooth="yes"/>
      <point x="166" y="246" type="line" smooth="yes"/>
      <point x="162" y="227"/>
      <point x="168" y="233"/>
      <point x="173" y="241" type="curve" smooth="yes"/>
      <point x="265" y="370"/>
      <point x="329" y="428"/>
      <point x="373" y="428" type="curve" smooth="yes"/>
      <point x="431" y="428"/>
      <point x="411" y="331"/>
      <point x="404" y="302" type="curve" smooth="yes"/>
      <point x="345" y="72" type="line" smooth="yes"/>
      <point x="343" y="66"/>
      <point x="336" y="47"/>
      <point x="348" y="47" type="curve" smooth="yes"/>
      <point x="359" y="47"/>
      <point x="384" y="71"/>
      <point x="427" y="119" type="curve" smooth="yes"/>
      <point x="435" y="126"/>
      <point x="444" y="107"/>
    </contour>
  </outline>
</glyph>
<glyph name="k" format="1">
  <advance width="459"/>
  <unicode hex="006B"/>
  <outline>
    <contour>
      <point x="452" y="343" type="curve" smooth="yes"/>
      <point x="459" y="255"/>
      <point x="395" y="201"/>
      <point x="235" y="206" type="curve"/>
      <point x="260" y="180"/>
      <point x="275" y="164"/>
      <point x="287" y="146" type="curve" smooth="yes"/>
      <point x="310" y="112" type="line" smooth="yes"/>
      <point x="335" y="75"/>
      <point x="368" y="46"/>
      <point x="390" y="50" type="curve"/>
      <point x="405" y="64"/>
      <point x="421" y="82"/>
      <point x="432" y="94" type="curve" smooth="yes"/>
      <point x="441" y="105"/>
      <point x="454" y="82"/>
      <point x="450" y="77" type="curve" smooth="yes"/>
      <point x="426" y="46"/>
      <point x="391" y="9"/>
      <point x="367" y="-10" type="curve"/>
      <point x="351" y="-10"/>
      <point x="339" y="-7"/>
      <point x="327" y="2" type="curve" smooth="yes"/>
      <point x="284" y="31"/>
      <point x="262" y="62"/>
      <point x="234" y="107" type="curve" smooth="yes"/>
      <point x="205" y="152"/>
      <point x="186" y="178"/>
      <point x="168" y="197" type="curve" smooth="yes"/>
      <point x="162" y="203"/>
      <point x="159" y="204"/>
      <point x="156" y="186" type="curve" smooth="yes"/>
      <point x="122" y="10" type="line" smooth="yes"/>
      <point x="118" y="-11"/>
      <point x="114" y="-10"/>
      <point x="102" y="-10" type="curve" smooth="yes"/>
      <point x="88" y="-10"/>
      <point x="74" y="-10"/>
      <point x="61" y="-9" type="curve" smooth="yes"/>
      <point x="49" y="-9"/>
      <point x="54" y="4"/>
      <point x="55" y="11" type="curve" smooth="yes"/>
      <point x="189" y="679" type="line" smooth="yes"/>
      <point x="193" y="698"/>
      <point x="190" y="695"/>
      <point x="173" y="686" type="curve" smooth="yes"/>
      <point x="162" y="680"/>
      <point x="151" y="673"/>
      <point x="140" y="667" type="curve" smooth="yes"/>
      <point x="136" y="663"/>
      <point x="131" y="669"/>
      <point x="129" y="674" type="curve" smooth="yes"/>
      <point x="125" y="681"/>
      <point x="126" y="688"/>
      <point x="132" y="690" type="curve" smooth="yes"/>
      <point x="233" y="749" type="line" smooth="yes"/>
      <point x="253" y="761"/>
      <point x="275" y="769"/>
      <point x="267" y="732" type="curve" smooth="yes"/>
      <point x="176" y="291" type="line" smooth="yes"/>
      <point x="173" y="277"/>
      <point x="170" y="270"/>
      <point x="186" y="286" type="curve" smooth="yes"/>
      <point x="228" y="325"/>
      <point x="340" y="429"/>
      <point x="390" y="429" type="curve" smooth="yes"/>
      <point x="423" y="429"/>
      <point x="449" y="387"/>
    </contour>
    <contour>
      <point x="396" y="334" type="curve" smooth="yes"/>
      <point x="396" y="356"/>
      <point x="379" y="379"/>
      <point x="355" y="379" type="curve" smooth="yes"/>
      <point x="328" y="379"/>
      <point x="243" y="315"/>
      <point x="164" y="233" type="curve" smooth="yes"/>
      <point x="162" y="230"/>
      <point x="168" y="227"/>
      <point x="169" y="225" type="curve" smooth="yes"/>
      <point x="193" y="224"/>
      <point x="215" y="226"/>
      <point x="241" y="225" type="curve" smooth="yes"/>
      <point x="267" y="224"/>
      <point x="293" y="227"/>
      <point x="316" y="233" type="curve" smooth="yes"/>
      <point x="363" y="244"/>
      <point x="397" y="270"/>
    </contour>
  </outline>
</glyph>
<glyph name="q" format="1">
  <advance width="426"/>
  <unicode hex="0071"/>
  <outline>
    <contour>
      <point x="407" y="405" type="curve" smooth="yes"/>
      <point x="293" y="-150" type="line" smooth="yes"/>
      <point x="289" y="-171"/>
      <point x="282" y="-193"/>
      <point x="282" y="-215" type="curve" smooth="yes"/>
      <point x="282" y="-256"/>
      <point x="322" y="-250"/>
      <point x="352" y="-250" type="curve" smooth="yes"/>
      <point x="358" y="-249"/>
      <point x="362" y="-254"/>
      <point x="360" y="-262" type="curve" smooth="yes"/>
      <point x="359" y="-270"/>
      <point x="353" y="-276"/>
      <point x="346" y="-274" type="curve" smooth="yes"/>
      <point x="255" y="-272"/>
      <point x="202" y="-272"/>
      <point x="123" y="-274" type="curve" smooth="yes"/>
      <point x="111" y="-272"/>
      <point x="120" y="-247"/>
      <point x="131" y="-250" type="curve"/>
      <point x="199" y="-243"/>
      <point x="209" y="-236"/>
      <point x="218" y="-190" type="curve" smooth="yes"/>
      <point x="222" y="-170"/>
      <point x="231" y="-125"/>
      <point x="277" y="93" type="curve" smooth="yes"/>
      <point x="279" y="100"/>
      <point x="284" y="127"/>
      <point x="276" y="117" type="curve" smooth="yes"/>
      <point x="248" y="83"/>
      <point x="155" y="-12"/>
      <point x="114" y="-12" type="curve" smooth="yes"/>
      <point x="80" y="-12"/>
      <point x="52" y="45"/>
      <point x="52" y="106" type="curve" smooth="yes"/>
      <point x="52" y="169"/>
      <point x="81" y="236"/>
      <point x="135" y="299" type="curve" smooth="yes"/>
      <point x="200" y="377"/>
      <point x="286" y="429"/>
      <point x="388" y="429" type="curve" smooth="yes"/>
      <point x="403" y="429"/>
      <point x="411" y="423"/>
    </contour>
    <contour>
      <point x="330" y="356" type="line" smooth="yes"/>
      <point x="332" y="368"/>
      <point x="327" y="370"/>
      <point x="323" y="370" type="curve" smooth="yes"/>
      <point x="269" y="367"/>
      <point x="237" y="354"/>
      <point x="209" y="331" type="curve" smooth="yes"/>
      <point x="156" y="288"/>
      <point x="121" y="203"/>
      <point x="121" y="122" type="curve" smooth="yes"/>
      <point x="121" y="70"/>
      <point x="133" y="45"/>
      <point x="155" y="45" type="curve" smooth="yes"/>
      <point x="175" y="45"/>
      <point x="213" y="82"/>
      <point x="294" y="170" type="curve"/>
    </contour>
  </outline>
</glyph>
<glyph name="w" format="1">
  <advance width="610"/>
  <unicode hex="0077"/>
  <outline>
    <contour>
      <point x="630" y="369" type="curve" smooth="yes"/>
      <point x="630" y="268"/>
      <point x="484" y="87"/>
      <point x="407" y="25" type="curve" smooth="yes"/>
      <point x="382" y="5"/>
      <point x="300" y="-50"/>
      <point x="300" y="31" type="curve" smooth="yes"/>
      <point x="300" y="56"/>
      <point x="303" y="84"/>
      <point x="308" y="111" type="curve" smooth="yes"/>
      <point x="312" y="137"/>
      <point x="315" y="149"/>
      <point x="317" y="168" type="curve" smooth="yes"/>
      <point x="321" y="186"/>
      <point x="317" y="181"/>
      <point x="305" y="161" type="curve" smooth="yes"/>
      <point x="269" y="102"/>
      <point x="171" y="-11"/>
      <point x="111" y="-11" type="curve" smooth="yes"/>
      <point x="79" y="-11"/>
      <point x="76" y="28"/>
      <point x="78" y="57" type="curve" smooth="yes"/>
      <point x="79" y="76"/>
      <point x="81" y="95"/>
      <point x="84" y="113" type="curve" smooth="yes"/>
      <point x="94" y="179"/>
      <point x="108" y="272"/>
      <point x="117" y="343" type="curve" smooth="yes"/>
      <point x="119" y="358"/>
      <point x="117" y="360"/>
      <point x="106" y="350" type="curve" smooth="yes"/>
      <point x="84" y="332"/>
      <point x="68" y="308"/>
      <point x="51" y="286" type="curve" smooth="yes"/>
      <point x="44" y="277"/>
      <point x="23" y="293"/>
      <point x="35" y="304" type="curve" smooth="yes"/>
      <point x="54" y="331"/>
      <point x="127" y="429"/>
      <point x="166" y="429" type="curve" smooth="yes"/>
      <point x="199" y="429"/>
      <point x="185" y="357"/>
      <point x="182" y="339" type="curve" smooth="yes"/>
      <point x="146" y="95" type="line" smooth="yes"/>
      <point x="145" y="86"/>
      <point x="137" y="41"/>
      <point x="153" y="41" type="curve" smooth="yes"/>
      <point x="189" y="41"/>
      <point x="302" y="197"/>
      <point x="330" y="246" type="curve"/>
      <point x="355" y="409" type="line" smooth="yes"/>
      <point x="356" y="417"/>
      <point x="358" y="427"/>
      <point x="376" y="427" type="curve" smooth="yes"/>
      <point x="387" y="428"/>
      <point x="390" y="428"/>
      <point x="400" y="428" type="curve" smooth="yes"/>
      <point x="415" y="428"/>
      <point x="420" y="418"/>
      <point x="418" y="408" type="curve" smooth="yes"/>
      <point x="369" y="90" type="line" smooth="yes"/>
      <point x="368" y="81"/>
      <point x="359" y="40"/>
      <point x="374" y="40" type="curve" smooth="yes"/>
      <point x="427" y="40"/>
      <point x="560" y="243"/>
      <point x="560" y="338" type="curve" smooth="yes"/>
      <point x="560" y="352"/>
      <point x="554" y="358"/>
      <point x="549" y="363" type="curve" smooth="yes"/>
      <point x="542" y="368"/>
      <point x="537" y="372"/>
      <point x="537" y="382" type="curve" smooth="yes"/>
      <point x="537" y="410"/>
      <point x="560" y="428"/>
      <point x="586" y="428" type="curve" smooth="yes"/>
      <point x="611" y="428"/>
      <point x="630" y="402"/>
    </contour>
  </outline>
</glyph>
<glyph name="asciitilde" format="1">
  <advance width="551"/>
  <unicode hex="007E"/>
  <outline>
    <contour>
      <point x="574" y="399" type="curve" smooth="yes"/>
      <point x="571" y="309"/>
      <point x="516" y="243"/>
      <point x="446" y="243" type="curve" smooth="yes"/>
      <point x="406" y="243"/>
      <point x="370" y="257"/>
      <point x="300" y="295" type="curve" smooth="yes"/>
      <point x="248" y="324"/>
      <point x="223" y="334"/>
      <point x="200" y="334" type="curve" smooth="yes"/>
      <point x="155" y="334"/>
      <point x="121" y="298"/>
      <point x="117" y="245" type="curve"/>
      <point x="112" y="236"/>
      <point x="93" y="238"/>
      <point x="92" y="245" type="curve" smooth="yes"/>
      <point x="93" y="333"/>
      <point x="152" y="402"/>
      <point x="224" y="402" type="curve" smooth="yes"/>
      <point x="262" y="402"/>
      <point x="291" y="392"/>
      <point x="360" y="353" type="curve" smooth="yes"/>
      <point x="409" y="325"/>
      <point x="439" y="314"/>
      <point x="463" y="314" type="curve" smooth="yes"/>
      <point x="509" y="314"/>
      <point x="541" y="343"/>
      <point x="547" y="399" type="curve" smooth="yes"/>
      <point x="551" y="411"/>
      <point x="573" y="409"/>
    </contour>
  </outline>
</glyph>
<glyph name="cent" format="1">
  <advance width="276"/>
  <unicode hex="00A2"/>
  <outline>
    <contour>
      <point x="291" y="350" type="curve" smooth="yes"/>
      <point x="277" y="350"/>
      <point x="268" y="353"/>
      <point x="242" y="368" type="curve" smooth="yes"/>
      <point x="229" y="375"/>
      <point x="224" y="373"/>
      <point x="222" y="361" type="curve" smooth="yes"/>
      <point x="164" y="47" type="line" smooth="yes"/>
      <point x="162" y="35"/>
      <point x="166" y="31"/>
      <point x="177" y="34" type="curve" smooth="yes"/>
      <point x="202" y="38"/>
      <point x="231" y="57"/>
      <point x="260" y="92" type="curve" smooth="yes"/>
      <point x="264" y="97"/>
      <point x="268" y="96"/>
      <point x="269" y="95" type="curve" smooth="yes"/>
      <point x="277" y="89" type="line" smooth="yes"/>
      <point x="281" y="86"/>
      <point x="281" y="82"/>
      <point x="278" y="79" type="curve" smooth="yes"/>
      <point x="240" y="33"/>
      <point x="202" y="4"/>
      <point x="165" y="-9" type="curve" smooth="yes"/>
      <point x="159" y="-11"/>
      <point x="153" y="-15"/>
      <point x="152" y="-23" type="curve" smooth="yes"/>
      <point x="116" y="-223" type="line" smooth="yes"/>
      <point x="114" y="-232"/>
      <point x="111" y="-237"/>
      <point x="103" y="-235" type="curve" smooth="yes"/>
      <point x="98" y="-234" type="line" smooth="yes"/>
      <point x="97" y="-234"/>
      <point x="93" y="-233"/>
      <point x="92" y="-232" type="curve" smooth="yes"/>
      <point x="91" y="-231"/>
      <point x="90" y="-229"/>
      <point x="91" y="-223" type="curve" smooth="yes"/>
      <point x="127" y="-28" type="line" smooth="yes"/>
      <point x="129" y="-18"/>
      <point x="125" y="-15"/>
      <point x="118" y="-14" type="curve" smooth="yes"/>
      <point x="71" y="-7"/>
      <point x="42" y="34"/>
      <point x="42" y="95" type="curve" smooth="yes"/>
      <point x="42" y="212"/>
      <point x="117" y="361"/>
      <point x="202" y="409" type="curve" smooth="yes"/>
      <point x="208" y="412"/>
      <point x="211" y="424"/>
      <point x="212" y="430" type="curve" smooth="yes"/>
      <point x="249" y="634" type="line" smooth="yes"/>
      <point x="250" y="641"/>
      <point x="253" y="644"/>
      <point x="259" y="643" type="curve" smooth="yes"/>
      <point x="264" y="641" type="line" smooth="yes"/>
      <point x="269" y="640"/>
      <point x="273" y="638"/>
      <point x="272" y="632" type="curve" smooth="yes"/>
      <point x="236" y="435" type="line" smooth="yes"/>
      <point x="234" y="425"/>
      <point x="238" y="423"/>
      <point x="247" y="425" type="curve" smooth="yes"/>
      <point x="253" y="426"/>
      <point x="258" y="426"/>
      <point x="264" y="426" type="curve" smooth="yes"/>
      <point x="297" y="426"/>
      <point x="319" y="412"/>
      <point x="319" y="385" type="curve" smooth="yes"/>
      <point x="319" y="365"/>
      <point x="308" y="350"/>
    </contour>
    <contour>
      <point x="198" y="365" type="curve" smooth="yes"/>
      <point x="196" y="368"/>
      <point x="194" y="370"/>
      <point x="188" y="365" type="curve" smooth="yes"/>
      <point x="182" y="359"/>
      <point x="176" y="351"/>
      <point x="171" y="342" type="curve" smooth="yes"/>
      <point x="139" y="289"/>
      <point x="111" y="175"/>
      <point x="111" y="106" type="curve" smooth="yes"/>
      <point x="111" y="80"/>
      <point x="117" y="61"/>
      <point x="129" y="48" type="curve" smooth="yes"/>
      <point x="136" y="41"/>
      <point x="142" y="49"/>
      <point x="143" y="56" type="curve" smooth="yes"/>
      <point x="197" y="353" type="line" smooth="yes"/>
      <point x="198" y="358"/>
      <point x="199" y="362"/>
    </contour>
  </outline>
</glyph>
<glyph name="brokenbar" format="1">
  <advance width="519"/>
  <unicode hex="00A6"/>
  <outline>
    <contour>
      <point x="288" y="476" type="line"/>
      <point x="230" y="476" type="line"/>
      <point x="230" y="845" type="line"/>
      <point x="288" y="845" type="line"/>
    </contour>
    <contour>
      <point x="288" y="-19" type="line"/>
      <point x="230" y="-19" type="line"/>
      <point x="230" y="350" type="line"/>
      <point x="288" y="350" type="line"/>
    </contour>
  </outline>
</glyph>
<glyph name="dieresis" format="1">
  <advance width="339"/>
  <unicode hex="00A8"/>
  <outline>
    <contour>
      <point x="381" y="537" type="curve" smooth="yes"/>
      <point x="381" y="508"/>
      <point x="358" y="484"/>
      <point x="330" y="484" type="curve" smooth="yes"/>
      <point x="301" y="484"/>
      <point x="277" y="508"/>
      <point x="277" y="537" type="curve" smooth="yes"/>
      <point x="277" y="567"/>
      <point x="301" y="590"/>
      <point x="330" y="590" type="curve" smooth="yes"/>
      <point x="358" y="590"/>
      <point x="381" y="567"/>
    </contour>
    <contour>
      <point x="213" y="536" type="curve" smooth="yes"/>
      <point x="213" y="508"/>
      <point x="189" y="484"/>
      <point x="162" y="484" type="curve" smooth="yes"/>
      <point x="133" y="484"/>
      <point x="110" y="508"/>
      <point x="110" y="536" type="curve" smooth="yes"/>
      <point x="110" y="566"/>
      <point x="133" y="589"/>
      <point x="162" y="589" type="curve" smooth="yes"/>
      <point x="189" y="589"/>
      <point x="213" y="566"/>
    </contour>
  </outline>
</glyph>
<glyph name="macron" format="1">
  <advance width="339"/>
  <unicode hex="00AF"/>
  <outline>
    <contour>
      <point x="404" y="571" type="curve" smooth="yes"/>
      <point x="395" y="537" type="line" smooth="yes"/>
      <point x="392" y="529"/>
      <point x="386" y="522"/>
      <point x="377" y="524" type="curve" smooth="yes"/>
      <point x="111" y="524" type="line" smooth="yes"/>
      <point x="96" y="524"/>
      <point x="91" y="529"/>
      <point x="94" y="541" type="curve" smooth="yes"/>
      <point x="105" y="579" type="line" smooth="yes"/>
      <point x="110" y="595"/>
      <point x="106" y="593"/>
      <point x="123" y="593" type="curve" smooth="yes"/>
      <point x="386" y="593" type="line" smooth="yes"/>
      <point x="403" y="593"/>
      <point x="408" y="585"/>
    </contour>
  </outline>
</glyph>
<glyph name="plusminus" format="1">
  <advance width="679"/>
  <unicode hex="00B1"/>
  <outline>
    <contour>
      <point x="609" y="387" type="line"/>
      <point x="367" y="387" type="line"/>
      <point x="367" y="141" type="line"/>
      <point x="309" y="141" type="line"/>
      <point x="309" y="387" type="line"/>
      <point x="69" y="387" type="line"/>
      <point x="69" y="445" type="line"/>
      <point x="309" y="445" type="line"/>
      <point x="309" y="691" type="line"/>
      <point x="367" y="691" type="line"/>
      <point x="367" y="445" type="line"/>
      <point x="609" y="445" type="line"/>
    </contour>
    <contour>
      <point x="609" y="-22" type="line"/>
      <point x="69" y="-22" type="line"/>
      <point x="69" y="37" type="line"/>
      <point x="609" y="37" type="line"/>
    </contour>
  </outline>
</glyph>
<glyph name="acute" format="1">
  <advance width="339"/>
  <unicode hex="00B4"/>
  <outline>
    <contour>
      <point x="336" y="644" type="curve" smooth="yes"/>
      <point x="307" y="604"/>
      <point x="245" y="534"/>
      <point x="214" y="499" type="curve" smooth="yes"/>
      <point x="208" y="493"/>
      <point x="196" y="494"/>
      <point x="199" y="503" type="curve" smooth="yes"/>
      <point x="210" y="538"/>
      <point x="237" y="624"/>
      <point x="241" y="648" type="curve" smooth="yes"/>
      <point x="244" y="656"/>
      <point x="250" y="658"/>
      <point x="260" y="658" type="curve" smooth="yes"/>
      <point x="278" y="659"/>
      <point x="308" y="660"/>
      <point x="325" y="658" type="curve" smooth="yes"/>
      <point x="334" y="660"/>
      <point x="344" y="655"/>
    </contour>
  </outline>
</glyph>
<glyph name="mu" format="1">
  <advance width="509"/>
  <unicode hex="00B5"/>
  <outline>
    <contour>
      <point x="512" y="101" type="curve" smooth="yes"/>
      <point x="496" y="50"/>
      <point x="483" y="31"/>
      <point x="455" y="10" type="curve" smooth="yes"/>
      <point x="435" y="-4"/>
      <point x="408" y="-14"/>
      <point x="387" y="-14" type="curve" smooth="yes"/>
      <point x="347" y="-14"/>
      <point x="320" y="19"/>
      <point x="320" y="64" type="curve" smooth="yes"/>
      <point x="320" y="87"/>
      <point x="317" y="89"/>
      <point x="308" y="77" type="curve" smooth="yes"/>
      <point x="290" y="51"/>
      <point x="275" y="38"/>
      <point x="252" y="21" type="curve" smooth="yes"/>
      <point x="197" y="-20"/>
      <point x="133" y="-36"/>
      <point x="91" y="27" type="curve" smooth="yes"/>
      <point x="86" y="34"/>
      <point x="84" y="32"/>
      <point x="81" y="25" type="curve" smooth="yes"/>
      <point x="66" y="-29"/>
      <point x="63" y="-48"/>
      <point x="55" y="-138" type="curve" smooth="yes"/>
      <point x="50" y="-196"/>
      <point x="33" y="-225"/>
      <point x="-1" y="-225" type="curve" smooth="yes"/>
      <point x="-23" y="-225"/>
      <point x="-39" y="-207"/>
      <point x="-39" y="-182" type="curve" smooth="yes"/>
      <point x="-39" y="-165"/>
      <point x="-35" y="-158"/>
      <point x="0" y="-88" type="curve" smooth="yes"/>
      <point x="21" y="-47"/>
      <point x="38" y="3"/>
      <point x="56" y="66" type="curve" smooth="yes"/>
      <point x="69" y="110" type="line"/>
      <point x="159" y="425" type="line" smooth="yes"/>
      <point x="162" y="444"/>
      <point x="174" y="448"/>
      <point x="181" y="448" type="curve" smooth="yes"/>
      <point x="223" y="448" type="line" smooth="yes"/>
      <point x="236" y="448"/>
      <point x="243" y="442"/>
      <point x="239" y="427" type="curve" smooth="yes"/>
      <point x="171" y="187" type="line" smooth="yes"/>
      <point x="163" y="160"/>
      <point x="151" y="125"/>
      <point x="151" y="97" type="curve" smooth="yes"/>
      <point x="151" y="-7"/>
      <point x="255" y="45"/>
      <point x="295" y="99" type="curve" smooth="yes"/>
      <point x="335" y="151"/>
      <point x="339" y="160"/>
      <point x="366" y="255" type="curve" smooth="yes"/>
      <point x="416" y="429" type="line" smooth="yes"/>
      <point x="423" y="446"/>
      <point x="431" y="448"/>
      <point x="442" y="448" type="curve" smooth="yes"/>
      <point x="476" y="448" type="line" smooth="yes"/>
      <point x="489" y="446"/>
      <point x="499" y="442"/>
      <point x="496" y="430" type="curve" smooth="yes"/>
      <point x="417" y="153" type="line" smooth="yes"/>
      <point x="410" y="127"/>
      <point x="401" y="107"/>
      <point x="401" y="80" type="curve" smooth="yes"/>
      <point x="401" y="52"/>
      <point x="410" y="40"/>
      <point x="427" y="40" type="curve" smooth="yes"/>
      <point x="451" y="40"/>
      <point x="466" y="55"/>
      <point x="494" y="111" type="curve"/>
      <point x="509" y="111" type="line" smooth="yes"/>
      <point x="513" y="111"/>
      <point x="515" y="109"/>
    </contour>
  </outline>
</glyph>
<glyph name="paragraph" format="1">
  <advance width="456"/>
  <unicode hex="00B6"/>
  <outline>
    <contour>
      <point x="464" y="633" type="curve" smooth="yes"/>
      <point x="464" y="628"/>
      <point x="467" y="613"/>
      <point x="454" y="615" type="curve" smooth="yes"/>
      <point x="412" y="615" type="line" smooth="yes"/>
      <point x="406" y="614"/>
      <point x="398" y="609"/>
      <point x="398" y="600" type="curve" smooth="yes"/>
      <point x="398" y="-233" type="line" smooth="yes"/>
      <point x="398" y="-240"/>
      <point x="390" y="-244"/>
      <point x="380" y="-243" type="curve" smooth="yes"/>
      <point x="364" y="-242"/>
      <point x="360" y="-241"/>
      <point x="358" y="-230" type="curve" smooth="yes"/>
      <point x="358" y="595" type="line" smooth="yes"/>
      <point x="358" y="608"/>
      <point x="355" y="615"/>
      <point x="341" y="615" type="curve" smooth="yes"/>
      <point x="287" y="615" type="line" smooth="yes"/>
      <point x="273" y="615"/>
      <point x="271" y="607"/>
      <point x="270" y="599" type="curve" smooth="yes"/>
      <point x="270" y="-234" type="line" smooth="yes"/>
      <point x="269" y="-244"/>
      <point x="260" y="-243"/>
      <point x="248" y="-243" type="curve" smooth="yes"/>
      <point x="240" y="-243"/>
      <point x="229" y="-242"/>
      <point x="229" y="-232" type="curve" smooth="yes"/>
      <point x="229" y="239" type="line" smooth="yes"/>
      <point x="229" y="257"/>
      <point x="225" y="260"/>
      <point x="211" y="260" type="curve" smooth="yes"/>
      <point x="105" y="262"/>
      <point x="46" y="294"/>
      <point x="14" y="357" type="curve" smooth="yes"/>
      <point x="-1" y="386"/>
      <point x="-9" y="419"/>
      <point x="-9" y="453" type="curve" smooth="yes"/>
      <point x="-9" y="575"/>
      <point x="76" y="646"/>
      <point x="217" y="646" type="curve" smooth="yes"/>
      <point x="456" y="646" type="line" smooth="yes"/>
      <point x="463" y="646"/>
      <point x="464" y="643"/>
    </contour>
  </outline>
</glyph>
<glyph name="periodcentered" format="1">
  <advance width="297"/>
  <unicode hex="00B7"/>
  <outline>
    <contour>
      <point x="237" y="294" type="curve" smooth="yes"/>
      <point x="237" y="265"/>
      <point x="213" y="240"/>
      <point x="184" y="240" type="curve" smooth="yes"/>
      <point x="156" y="240"/>
      <point x="132" y="265"/>
      <point x="132" y="294" type="curve" smooth="yes"/>
      <point x="132" y="324"/>
      <point x="156" y="347"/>
      <point x="184" y="347" type="curve" smooth="yes"/>
      <point x="213" y="347"/>
      <point x="237" y="324"/>
    </contour>
  </outline>
</glyph>
<glyph name="guillemotright" format="1">
  <advance width="446"/>
  <unicode hex="00BB"/>
  <outline>
    <contour>
      <point x="452" y="228" type="line"/>
      <point x="255" y="35" type="line"/>
      <point x="229" y="35" type="line"/>
      <point x="377" y="229" type="line"/>
      <point x="316" y="421" type="line"/>
      <point x="342" y="421" type="line"/>
    </contour>
    <contour>
      <point x="280" y="228" type="line"/>
      <point x="120" y="58" type="line"/>
      <point x="93" y="58" type="line"/>
      <point x="205" y="229" type="line"/>
      <point x="175" y="396" type="line"/>
      <point x="201" y="396" type="line"/>
    </contour>
  </outline>
</glyph>
<glyph name="questiondown" format="1">
  <advance width="403"/>
  <unicode hex="00BF"/>
  <outline>
    <contour>
      <point x="355" y="375" type="curve" smooth="yes"/>
      <point x="355" y="340"/>
      <point x="334" y="314"/>
      <point x="304" y="314" type="curve" smooth="yes"/>
      <point x="269" y="314"/>
      <point x="262" y="351"/>
      <point x="263" y="369" type="curve" smooth="yes"/>
      <point x="266" y="401"/>
      <point x="287" y="425"/>
      <point x="314" y="425" type="curve" smooth="yes"/>
      <point x="339" y="425"/>
      <point x="355" y="404"/>
    </contour>
    <contour>
      <point x="293" y="235" type="curve" smooth="yes"/>
      <point x="285" y="160"/>
      <point x="270" y="104"/>
      <point x="247" y="73" type="curve" smooth="yes"/>
      <point x="236" y="58"/>
      <point x="217" y="45"/>
      <point x="178" y="23" type="curve" smooth="yes"/>
      <point x="114" y="-13"/>
      <point x="90" y="-43"/>
      <point x="90" y="-84" type="curve" smooth="yes"/>
      <point x="90" y="-129"/>
      <point x="127" y="-164"/>
      <point x="178" y="-164" type="curve" smooth="yes"/>
      <point x="194" y="-164"/>
      <point x="216" y="-160"/>
      <point x="240" y="-152" type="curve" smooth="yes"/>
      <point x="250" y="-149"/>
      <point x="257" y="-148"/>
      <point x="262" y="-148" type="curve" smooth="yes"/>
      <point x="279" y="-148"/>
      <point x="290" y="-165"/>
      <point x="290" y="-188" type="curve" smooth="yes"/>
      <point x="290" y="-220"/>
      <point x="249" y="-243"/>
      <point x="197" y="-243" type="curve" smooth="yes"/>
      <point x="112" y="-243"/>
      <point x="52" y="-177"/>
      <point x="52" y="-82" type="curve" smooth="yes"/>
      <point x="52" y="-20"/>
      <point x="72" y="37"/>
      <point x="105" y="68" type="curve" smooth="yes"/>
      <point x="119" y="81"/>
      <point x="139" y="95"/>
      <point x="165" y="108" type="curve" smooth="yes"/>
      <point x="214" y="133"/>
      <point x="229" y="144"/>
      <point x="245" y="174" type="curve" smooth="yes"/>
      <point x="258" y="197"/>
      <point x="262" y="208"/>
      <point x="269" y="240" type="curve" smooth="yes"/>
      <point x="270" y="243"/>
      <point x="272" y="250"/>
      <point x="278" y="251" type="curve" smooth="yes"/>
      <point x="288" y="251" type="line" smooth="yes"/>
      <point x="295" y="251"/>
      <point x="294" y="246"/>
    </contour>
  </outline>
</glyph>
<glyph name="Agrave" format="1">
  <advance width="693"/>
  <unicode hex="00C0"/>
  <outline>
    <contour>
      <point x="599" y="718" type="line" smooth="yes"/>
      <point x="600" y="715"/>
      <point x="598" y="713"/>
      <point x="592" y="713" type="curve" smooth="yes"/>
      <point x="588" y="713"/>
      <point x="583" y="714"/>
      <point x="581" y="717" type="curve" smooth="yes"/>
      <point x="458" y="863" type="line" smooth="yes"/>
      <point x="449" y="871"/>
      <point x="458" y="876"/>
      <point x="464" y="876" type="curve" smooth="yes"/>
      <point x="538" y="876" type="line" smooth="yes"/>
      <point x="542" y="876"/>
      <point x="547" y="877"/>
      <point x="550" y="873" type="curve" smooth="yes"/>
      <point x="550" y="872"/>
      <point x="551" y="871"/>
      <point x="551" y="870" type="curve" smooth="yes"/>
    </contour>
    <contour>
      <point x="676" y="9" type="curve" smooth="yes"/>
      <point x="675" y="0"/>
      <point x="672" y="-2"/>
      <point x="662" y="-2" type="curve" smooth="yes"/>
      <point x="586" y="2"/>
      <point x="448" y="0"/>
      <point x="380" y="-2" type="curve" smooth="yes"/>
      <point x="370" y="-2"/>
      <point x="369" y="23"/>
      <point x="383" y="23" type="curve" smooth="yes"/>
      <point x="471" y="23"/>
      <point x="495" y="41"/>
      <point x="495" y="105" type="curve" smooth="yes"/>
      <point x="494" y="268" type="line" smooth="yes"/>
      <point x="494" y="271"/>
      <point x="486" y="279"/>
      <point x="480" y="279" type="curve" smooth="yes"/>
      <point x="283" y="279" type="line" smooth="yes"/>
      <point x="278" y="279"/>
      <point x="274" y="277"/>
      <point x="269" y="272" type="curve" smooth="yes"/>
      <point x="144" y="106" type="line" smooth="yes"/>
      <point x="132" y="90"/>
      <point x="125" y="75"/>
      <point x="125" y="64" type="curve" smooth="yes"/>
      <point x="125" y="30"/>
      <point x="158" y="26"/>
      <point x="182" y="25" type="curve" smooth="yes"/>
      <point x="192" y="24"/>
      <point x="200" y="25"/>
      <point x="208" y="25" type="curve" smooth="yes"/>
      <point x="221" y="25"/>
      <point x="218" y="-2"/>
      <point x="205" y="-2" type="curve" smooth="yes"/>
      <point x="149" y="0"/>
      <point x="29" y="0"/>
      <point x="-35" y="-2" type="curve" smooth="yes"/>
      <point x="-46" y="-2"/>
      <point x="-46" y="23"/>
      <point x="-28" y="23" type="curve" smooth="yes"/>
      <point x="24" y="33"/>
      <point x="46" y="47"/>
      <point x="99" y="116" type="curve" smooth="yes"/>
      <point x="515" y="657" type="line" smooth="yes"/>
      <point x="516" y="660"/>
      <point x="521" y="663"/>
      <point x="526" y="664" type="curve" smooth="yes"/>
      <point x="539" y="668"/>
      <point x="555" y="667"/>
      <point x="566" y="664" type="curve" smooth="yes"/>
      <point x="577" y="662"/>
      <point x="578" y="657"/>
      <point x="578" y="648" type="curve" smooth="yes"/>
      <point x="584" y="80" type="line" smooth="yes"/>
      <point x="584" y="37"/>
      <point x="608" y="29"/>
      <point x="631" y="26" type="curve" smooth="yes"/>
      <point x="640" y="25"/>
      <point x="650" y="26"/>
      <point x="659" y="26" type="curve" smooth="yes"/>
      <point x="661" y="26"/>
      <point x="664" y="26"/>
      <point x="666" y="26" type="curve" smooth="yes"/>
      <point x="673" y="25"/>
      <point x="678" y="18"/>
    </contour>
    <contour>
      <point x="496" y="339" type="curve" smooth="yes"/>
      <point x="496" y="393"/>
      <point x="496" y="498"/>
      <point x="496" y="546" type="curve" smooth="yes"/>
      <point x="496" y="565"/>
      <point x="484" y="561"/>
      <point x="479" y="554" type="curve" smooth="yes"/>
      <point x="321" y="339" type="line" smooth="yes"/>
      <point x="316" y="333"/>
      <point x="320" y="324"/>
      <point x="335" y="324" type="curve" smooth="yes"/>
      <point x="477" y="325" type="line" smooth="yes"/>
      <point x="490" y="325"/>
      <point x="496" y="333"/>
    </contour>
  </outline>
</glyph>
<glyph name="Acircumflex" format="1">
  <advance width="693"/>
  <unicode hex="00C2"/>
  <outline>
    <contour>
      <point x="676" y="9" type="curve" smooth="yes"/>
      <point x="675" y="0"/>
      <point x="672" y="-2"/>
      <point x="662" y="-2" type="curve" smooth="yes"/>
      <point x="586" y="2"/>
      <point x="448" y="0"/>
      <point x="380" y="-2" type="curve" smooth="yes"/>
      <point x="370" y="-2"/>
      <point x="369" y="23"/>
      <point x="383" y="23" type="curve" smooth="yes"/>
      <point x="471" y="23"/>
      <point x="495" y="41"/>
      <point x="495" y="105" type="curve" smooth="yes"/>
      <point x="494" y="268" type="line" smooth="yes"/>
      <point x="494" y="271"/>
      <point x="486" y="279"/>
      <point x="480" y="279" type="curve" smooth="yes"/>
      <point x="283" y="279" type="line" smooth="yes"/>
      <point x="278" y="279"/>
      <point x="274" y="277"/>
      <point x="269" y="272" type="curve" smooth="yes"/>
      <point x="144" y="106" type="line" smooth="yes"/>
      <point x="132" y="90"/>
      <point x="125" y="75"/>
      <point x="125" y="64" type="curve" smooth="yes"/>
      <point x="125" y="30"/>
      <point x="158" y="26"/>
      <point x="182" y="25" type="curve" smooth="yes"/>
      <point x="192" y="24"/>
      <point x="200" y="25"/>
      <point x="208" y="25" type="curve" smooth="yes"/>
      <point x="221" y="25"/>
      <point x="218" y="-2"/>
      <point x="205" y="-2" type="curve" smooth="yes"/>
      <point x="149" y="0"/>
      <point x="29" y="0"/>
      <point x="-35" y="-2" type="curve" smooth="yes"/>
      <point x="-46" y="-2"/>
      <point x="-46" y="23"/>
      <point x="-28" y="23" type="curve" smooth="yes"/>
      <point x="24" y="33"/>
      <point x="46" y="47"/>
      <point x="99" y="116" type="curve" smooth="yes"/>
      <point x="515" y="657" type="line" smooth="yes"/>
      <point x="516" y="660"/>
      <point x="521" y="663"/>
      <point x="526" y="664" type="curve" smooth="yes"/>
      <point x="539" y="668"/>
      <point x="555" y="667"/>
      <point x="566" y="664" type="curve" smooth="yes"/>
      <point x="577" y="662"/>
      <point x="578" y="657"/>
      <point x="578" y="648" type="curve" smooth="yes"/>
      <point x="584" y="80" type="line" smooth="yes"/>
      <point x="584" y="37"/>
      <point x="608" y="29"/>
      <point x="631" y="26" type="curve" smooth="yes"/>
      <point x="640" y="25"/>
      <point x="650" y="26"/>
      <point x="659" y="26" type="curve" smooth="yes"/>
      <point x="661" y="26"/>
      <point x="664" y="26"/>
      <point x="666" y="26" type="curve" smooth="yes"/>
      <point x="673" y="25"/>
      <point x="678" y="18"/>
    </contour>
    <contour>
      <point x="496" y="339" type="curve" smooth="yes"/>
      <point x="496" y="393"/>
      <point x="496" y="498"/>
      <point x="496" y="546" type="curve" smooth="yes"/>
      <point x="496" y="565"/>
      <point x="484" y="561"/>
      <point x="479" y="554" type="curve" smooth="yes"/>
      <point x="321" y="339" type="line" smooth="yes"/>
      <point x="316" y="333"/>
      <point x="320" y="324"/>
      <point x="335" y="324" type="curve" smooth="yes"/>
      <point x="477" y="325" type="line" smooth="yes"/>
      <point x="490" y="325"/>
      <point x="496" y="333"/>
    </contour>
    <contour>
      <point x="678" y="707" type="line" smooth="yes"/>
      <point x="679" y="701"/>
      <point x="679" y="697"/>
      <point x="673" y="697" type="curve" smooth="yes"/>
      <point x="667" y="697" type="line"/>
      <point x="588" y="792" type="line" smooth="yes"/>
      <point x="585" y="796"/>
      <point x="580" y="796"/>
      <point x="575" y="793" type="curve" smooth="yes"/>
      <point x="426" y="697" type="line"/>
      <point x="414" y="697" type="line" smooth="yes"/>
      <point x="410" y="698"/>
      <point x="411" y="701"/>
      <point x="414" y="704" type="curve" smooth="yes"/>
      <point x="560" y="851" type="line" smooth="yes"/>
      <point x="566" y="858"/>
      <point x="574" y="860"/>
      <point x="582" y="860" type="curve" smooth="yes"/>
      <point x="593" y="861"/>
      <point x="615" y="859"/>
      <point x="626" y="859" type="curve" smooth="yes"/>
      <point x="636" y="858"/>
      <point x="641" y="856"/>
      <point x="644" y="844" type="curve" smooth="yes"/>
    </contour>
  </outline>
</glyph>
<glyph name="Igrave" format="1">
  <advance width="356"/>
  <unicode hex="00CC"/>
  <outline>
    <contour>
      <point x="347" y="718" type="line" smooth="yes"/>
      <point x="347" y="715"/>
      <point x="345" y="713"/>
      <point x="340" y="713" type="curve" smooth="yes"/>
      <point x="336" y="713"/>
      <point x="331" y="714"/>
      <point x="329" y="717" type="curve" smooth="yes"/>
      <point x="205" y="863" type="line" smooth="yes"/>
      <point x="198" y="872"/>
      <point x="206" y="876"/>
      <point x="211" y="876" type="curve" smooth="yes"/>
      <point x="285" y="876" type="line" smooth="yes"/>
      <point x="290" y="876"/>
      <point x="295" y="877"/>
      <point x="297" y="873" type="curve" smooth="yes"/>
      <point x="298" y="872"/>
      <point x="298" y="871"/>
      <point x="299" y="870" type="curve" smooth="yes"/>
    </contour>
    <contour>
      <point x="426" y="630" type="curve" smooth="yes"/>
      <point x="423" y="622"/>
      <point x="417" y="617"/>
      <point x="408" y="620" type="curve" smooth="yes"/>
      <point x="344" y="616"/>
      <point x="329" y="605"/>
      <point x="314" y="532" type="curve" smooth="yes"/>
      <point x="225" y="112" type="line" smooth="yes"/>
      <point x="210" y="43"/>
      <point x="228" y="22"/>
      <point x="303" y="23" type="curve" smooth="yes"/>
      <point x="311" y="23"/>
      <point x="314" y="16"/>
      <point x="312" y="9" type="curve" smooth="yes"/>
      <point x="311" y="4"/>
      <point x="305" y="-1"/>
      <point x="301" y="-2" type="curve" smooth="yes"/>
      <point x="231" y="0"/>
      <point x="95" y="2"/>
      <point x="30" y="-2" type="curve" smooth="yes"/>
      <point x="23" y="-2"/>
      <point x="21" y="6"/>
      <point x="23" y="13" type="curve" smooth="yes"/>
      <point x="25" y="19"/>
      <point x="34" y="25"/>
      <point x="39" y="25" type="curve" smooth="yes"/>
      <point x="108" y="24"/>
      <point x="122" y="50"/>
      <point x="135" y="113" type="curve" smooth="yes"/>
      <point x="224" y="533" type="line" smooth="yes"/>
      <point x="236" y="589"/>
      <point x="238" y="614"/>
      <point x="166" y="619" type="curve" smooth="yes"/>
      <point x="155" y="618"/>
      <point x="138" y="618"/>
      <point x="144" y="634" type="curve" smooth="yes"/>
      <point x="146" y="642"/>
      <point x="151" y="646"/>
      <point x="160" y="646" type="curve" smooth="yes"/>
      <point x="224" y="643"/>
      <point x="352" y="643"/>
      <point x="421" y="646" type="curve" smooth="yes"/>
      <point x="429" y="646"/>
      <point x="429" y="638"/>
    </contour>
  </outline>
</glyph>
<glyph name="Ocircumflex" format="1">
  <advance width="819"/>
  <unicode hex="00D4"/>
  <outline>
    <contour>
      <point x="782" y="358" type="curve" smooth="yes"/>
      <point x="782" y="150"/>
      <point x="606" y="-18"/>
      <point x="387" y="-18" type="curve" smooth="yes"/>
      <point x="211" y="-18"/>
      <point x="88" y="114"/>
      <point x="88" y="287" type="curve" smooth="yes"/>
      <point x="88" y="491"/>
      <point x="267" y="662"/>
      <point x="480" y="662" type="curve" smooth="yes"/>
      <point x="656" y="662"/>
      <point x="782" y="529"/>
    </contour>
    <contour>
      <point x="688" y="389" type="curve" smooth="yes"/>
      <point x="688" y="532"/>
      <point x="609" y="632"/>
      <point x="481" y="631" type="curve" smooth="yes"/>
      <point x="406" y="631"/>
      <point x="342" y="605"/>
      <point x="295" y="555" type="curve" smooth="yes"/>
      <point x="226" y="482"/>
      <point x="182" y="369"/>
      <point x="182" y="262" type="curve" smooth="yes"/>
      <point x="182" y="109"/>
      <point x="256" y="14"/>
      <point x="387" y="13" type="curve" smooth="yes"/>
      <point x="556" y="12"/>
      <point x="688" y="176"/>
    </contour>
    <contour>
      <point x="639" y="709" type="line" smooth="yes"/>
      <point x="640" y="703"/>
      <point x="640" y="699"/>
      <point x="634" y="699" type="curve" smooth="yes"/>
      <point x="628" y="699" type="line"/>
      <point x="549" y="794" type="line" smooth="yes"/>
      <point x="546" y="798"/>
      <point x="541" y="798"/>
      <point x="536" y="795" type="curve" smooth="yes"/>
      <point x="387" y="699" type="line"/>
      <point x="375" y="699" type="line" smooth="yes"/>
      <point x="371" y="700"/>
      <point x="372" y="703"/>
      <point x="375" y="706" type="curve" smooth="yes"/>
      <point x="521" y="853" type="line" smooth="yes"/>
      <point x="527" y="860"/>
      <point x="535" y="862"/>
      <point x="543" y="862" type="curve" smooth="yes"/>
      <point x="554" y="863"/>
      <point x="576" y="861"/>
      <point x="587" y="861" type="curve" smooth="yes"/>
      <point x="597" y="860"/>
      <point x="602" y="858"/>
      <point x="605" y="846" type="curve" smooth="yes"/>
    </contour>
  </outline>
</glyph>
<glyph name="Otilde" format="1">
  <advance width="819"/>
  <unicode hex="00D5"/>
  <outline>
    <contour>
      <point x="782" y="358" type="curve" smooth="yes"/>
      <point x="782" y="150"/>
      <point x="606" y="-18"/>
      <point x="387" y="-18" type="curve" smooth="yes"/>
      <point x="211" y="-18"/>
      <point x="88" y="114"/>
      <point x="88" y="287" type="curve" smooth="yes"/>
      <point x="88" y="491"/>
      <point x="267" y="662"/>
      <point x="480" y="662" type="curve" smooth="yes"/>
      <point x="656" y="662"/>
      <point x="782" y="529"/>
    </contour>
    <contour>
      <point x="688" y="389" type="curve" smooth="yes"/>
      <point x="688" y="532"/>
      <point x="609" y="632"/>
      <point x="481" y="631" type="curve" smooth="yes"/>
      <point x="406" y="631"/>
      <point x="342" y="605"/>
      <point x="295" y="555" type="curve" smooth="yes"/>
      <point x="226" y="482"/>
      <point x="182" y="369"/>
      <point x="182" y="262" type="curve" smooth="yes"/>
      <point x="182" y="109"/>
      <point x="256" y="14"/>
      <point x="387" y="13" type="curve" smooth="yes"/>
      <point x="556" y="12"/>
      <point x="688" y="176"/>
    </contour>
    <contour>
      <point x="660" y="841" type="curve" smooth="yes"/>
      <point x="660" y="772"/>
      <point x="620" y="719"/>
      <point x="567" y="719" type="curve" smooth="yes"/>
      <point x="500" y="719"/>
      <point x="446" y="789"/>
      <point x="407" y="789" type="curve" smooth="yes"/>
      <point x="382" y="789"/>
      <point x="371" y="776"/>
      <point x="362" y="728" type="curve" smooth="yes"/>
      <point x="361" y="722"/>
      <point x="358" y="720"/>
      <point x="350" y="720" type="curve" smooth="yes"/>
      <point x="343" y="720"/>
      <point x="341" y="724"/>
      <point x="342" y="734" type="curve" smooth="yes"/>
      <point x="349" y="813"/>
      <point x="382" y="855"/>
      <point x="436" y="855" type="curve" smooth="yes"/>
      <point x="498" y="855"/>
      <point x="557" y="785"/>
      <point x="596" y="785" type="curve" smooth="yes"/>
      <point x="619" y="785"/>
      <point x="633" y="801"/>
      <point x="640" y="844" type="curve" smooth="yes"/>
      <point x="641" y="852"/>
      <point x="643" y="854"/>
      <point x="651" y="854" type="curve" smooth="yes"/>
      <point x="660" y="854"/>
      <point x="660" y="848"/>
    </contour>
  </outline>
</glyph>
<glyph name="Odieresis" format="1">
  <advance width="819"/>
  <unicode hex="00D6"/>
  <outline>
    <contour>
      <point x="653" y="756" type="curve" smooth="yes"/>
      <point x="653" y="727"/>
      <point x="631" y="702"/>
      <point x="602" y="702" type="curve" smooth="yes"/>
      <point x="573" y="702"/>
      <point x="550" y="727"/>
      <point x="550" y="756" type="curve" smooth="yes"/>
      <point x="550" y="786"/>
      <point x="573" y="809"/>
      <point x="602" y="809" type="curve" smooth="yes"/>
      <point x="631" y="809"/>
      <point x="653" y="786"/>
    </contour>
    <contour>
      <point x="485" y="755" type="curve" smooth="yes"/>
      <point x="485" y="727"/>
      <point x="462" y="702"/>
      <point x="434" y="702" type="curve" smooth="yes"/>
      <point x="405" y="702"/>
      <point x="383" y="727"/>
      <point x="383" y="755" type="curve" smooth="yes"/>
      <point x="383" y="785"/>
      <point x="405" y="808"/>
      <point x="434" y="808" type="curve" smooth="yes"/>
      <point x="462" y="808"/>
      <point x="485" y="785"/>
    </contour>
    <contour>
      <point x="782" y="358" type="curve" smooth="yes"/>
      <point x="782" y="150"/>
      <point x="606" y="-18"/>
      <point x="387" y="-18" type="curve" smooth="yes"/>
      <point x="211" y="-18"/>
      <point x="88" y="114"/>
      <point x="88" y="287" type="curve" smooth="yes"/>
      <point x="88" y="491"/>
      <point x="267" y="662"/>
      <point x="480" y="662" type="curve" smooth="yes"/>
      <point x="656" y="662"/>
      <point x="782" y="529"/>
    </contour>
    <contour>
      <point x="688" y="389" type="curve" smooth="yes"/>
      <point x="688" y="532"/>
      <point x="609" y="632"/>
      <point x="481" y="631" type="curve" smooth="yes"/>
      <point x="406" y="631"/>
      <point x="342" y="605"/>
      <point x="295" y="555" type="curve" smooth="yes"/>
      <point x="226" y="482"/>
      <point x="182" y="369"/>
      <point x="182" y="262" type="curve" smooth="yes"/>
      <point x="182" y="109"/>
      <point x="256" y="14"/>
      <point x="387" y="13" type="curve" smooth="yes"/>
      <point x="556" y="12"/>
      <point x="688" y="176"/>
    </contour>
  </outline>
</glyph>
<glyph name="multiply" format="1">
  <advance width="680"/>
  <unicode hex="00D7"/>
  <outline>
    <contour>
      <point x="587" y="544" type="line"/>
      <point x="380" y="333" type="line"/>
      <point x="585" y="124" type="line"/>
      <point x="545" y="83" type="line"/>
      <point x="341" y="292" type="line"/>
      <point x="134" y="83" type="line"/>
      <point x="93" y="124" type="line"/>
      <point x="299" y="333" type="line"/>
      <point x="93" y="544" type="line"/>
      <point x="133" y="586" type="line"/>
      <point x="340" y="374" type="line"/>
      <point x="547" y="586" type="line"/>
    </contour>
  </outline>
</glyph>
<glyph name="Yacute" format="1">
  <advance width="639"/>
  <unicode hex="00DD"/>
  <outline>
    <contour>
      <point x="563" y="863" type="curve" smooth="yes"/>
      <point x="534" y="822"/>
      <point x="471" y="753"/>
      <point x="441" y="718" type="curve" smooth="yes"/>
      <point x="435" y="712"/>
      <point x="423" y="713"/>
      <point x="426" y="722" type="curve" smooth="yes"/>
      <point x="437" y="757"/>
      <point x="464" y="842"/>
      <point x="468" y="867" type="curve" smooth="yes"/>
      <point x="471" y="875"/>
      <point x="477" y="877"/>
      <point x="487" y="877" type="curve" smooth="yes"/>
      <point x="505" y="878"/>
      <point x="535" y="879"/>
      <point x="552" y="877" type="curve" smooth="yes"/>
      <point x="560" y="878"/>
      <point x="571" y="874"/>
    </contour>
    <contour>
      <point x="762" y="638" type="curve" smooth="yes"/>
      <point x="760" y="629"/>
      <point x="757" y="626"/>
      <point x="756" y="625" type="curve" smooth="yes"/>
      <point x="714" y="609"/>
      <point x="701" y="602"/>
      <point x="660" y="554" type="curve" smooth="yes"/>
      <point x="406" y="262" type="line"/>
      <point x="375" y="112" type="line" smooth="yes"/>
      <point x="362" y="50"/>
      <point x="369" y="26"/>
      <point x="441" y="28" type="curve" smooth="yes"/>
      <point x="449" y="28"/>
      <point x="462" y="29"/>
      <point x="469" y="27" type="curve" smooth="yes"/>
      <point x="479" y="25"/>
      <point x="469" y="-2"/>
      <point x="464" y="-2" type="curve" smooth="yes"/>
      <point x="388" y="0"/>
      <point x="248" y="0"/>
      <point x="162" y="-2" type="curve" smooth="yes"/>
      <point x="153" y="0"/>
      <point x="160" y="26"/>
      <point x="170" y="27" type="curve" smooth="yes"/>
      <point x="193" y="28"/>
      <point x="230" y="28"/>
      <point x="250" y="41" type="curve" smooth="yes"/>
      <point x="266" y="52"/>
      <point x="276" y="72"/>
      <point x="285" y="113" type="curve" smooth="yes"/>
      <point x="317" y="263" type="line"/>
      <point x="191" y="550" type="line" smooth="yes"/>
      <point x="166" y="608"/>
      <point x="149" y="620"/>
      <point x="112" y="622" type="curve" smooth="yes"/>
      <point x="103" y="622"/>
      <point x="101" y="625"/>
      <point x="103" y="635" type="curve" smooth="yes"/>
      <point x="104" y="641"/>
      <point x="108" y="646"/>
      <point x="114" y="646" type="curve" smooth="yes"/>
      <point x="176" y="643"/>
      <point x="276" y="644"/>
      <point x="328" y="646" type="curve" smooth="yes"/>
      <point x="334" y="644"/>
      <point x="338" y="642"/>
      <point x="335" y="634" type="curve" smooth="yes"/>
      <point x="334" y="629"/>
      <point x="332" y="622"/>
      <point x="329" y="622" type="curve" smooth="yes"/>
      <point x="270" y="617"/>
      <point x="259" y="615"/>
      <point x="288" y="548" type="curve" smooth="yes"/>
      <point x="390" y="315" type="line" smooth="yes"/>
      <point x="393" y="307"/>
      <point x="393" y="299"/>
      <point x="406" y="315" type="curve" smooth="yes"/>
      <point x="590" y="529" type="line" smooth="yes"/>
      <point x="620" y="564"/>
      <point x="629" y="575"/>
      <point x="629" y="590" type="curve" smooth="yes"/>
      <point x="629" y="610"/>
      <point x="610" y="620"/>
      <point x="567" y="622" type="curve" smooth="yes"/>
      <point x="558" y="624"/>
      <point x="565" y="648"/>
      <point x="575" y="646" type="curve" smooth="yes"/>
      <point x="638" y="643"/>
      <point x="688" y="642"/>
      <point x="752" y="646" type="curve" smooth="yes"/>
      <point x="757" y="646"/>
      <point x="763" y="643"/>
    </contour>
  </outline>
</glyph>
<glyph name="ecircumflex" format="1">
  <advance width="364"/>
  <unicode hex="00EA"/>
  <outline>
    <contour>
      <point x="349" y="358" type="curve" smooth="yes"/>
      <point x="349" y="301"/>
      <point x="310" y="265"/>
      <point x="261" y="240" type="curve" smooth="yes"/>
      <point x="237" y="227"/>
      <point x="210" y="218"/>
      <point x="184" y="210" type="curve" smooth="yes"/>
      <point x="159" y="202"/>
      <point x="144" y="199"/>
      <point x="123" y="193" type="curve" smooth="yes"/>
      <point x="114" y="189"/>
      <point x="113" y="184"/>
      <point x="113" y="181" type="curve" smooth="yes"/>
      <point x="109" y="162"/>
      <point x="108" y="145"/>
      <point x="108" y="128" type="curve" smooth="yes"/>
      <point x="108" y="67"/>
      <point x="141" y="31"/>
      <point x="187" y="32" type="curve" smooth="yes"/>
      <point x="217" y="33"/>
      <point x="252" y="50"/>
      <point x="301" y="88" type="curve" smooth="yes"/>
      <point x="307" y="93"/>
      <point x="312" y="91"/>
      <point x="314" y="85" type="curve" smooth="yes"/>
      <point x="317" y="79"/>
      <point x="317" y="70"/>
      <point x="312" y="64" type="curve" smooth="yes"/>
      <point x="252" y="12"/>
      <point x="185" y="-12"/>
      <point x="141" y="-12" type="curve" smooth="yes"/>
      <point x="83" y="-12"/>
      <point x="38" y="51"/>
      <point x="38" y="132" type="curve" smooth="yes"/>
      <point x="38" y="283"/>
      <point x="148" y="431"/>
      <point x="265" y="431" type="curve" smooth="yes"/>
      <point x="317" y="431"/>
      <point x="349" y="404"/>
    </contour>
    <contour>
      <point x="296" y="346" type="curve" smooth="yes"/>
      <point x="298" y="376"/>
      <point x="282" y="400"/>
      <point x="250" y="399" type="curve" smooth="yes"/>
      <point x="215" y="398"/>
      <point x="187" y="380"/>
      <point x="170" y="349" type="curve" smooth="yes"/>
      <point x="161" y="332"/>
      <point x="153" y="320"/>
      <point x="146" y="303" type="curve" smooth="yes"/>
      <point x="139" y="287"/>
      <point x="133" y="269"/>
      <point x="126" y="237" type="curve" smooth="yes"/>
      <point x="124" y="229"/>
      <point x="131" y="228"/>
      <point x="142" y="231" type="curve" smooth="yes"/>
      <point x="177" y="239"/>
      <point x="204" y="247"/>
      <point x="236" y="263" type="curve" smooth="yes"/>
      <point x="275" y="283"/>
      <point x="294" y="317"/>
    </contour>
    <contour>
      <point x="389" y="488" type="line" smooth="yes"/>
      <point x="390" y="482"/>
      <point x="390" y="478"/>
      <point x="384" y="478" type="curve" smooth="yes"/>
      <point x="378" y="478" type="line"/>
      <point x="299" y="573" type="line" smooth="yes"/>
      <point x="296" y="577"/>
      <point x="291" y="577"/>
      <point x="286" y="574" type="curve" smooth="yes"/>
      <point x="137" y="478" type="line"/>
      <point x="125" y="478" type="line" smooth="yes"/>
      <point x="121" y="479"/>
      <point x="122" y="482"/>
      <point x="125" y="485" type="curve" smooth="yes"/>
      <point x="271" y="632" type="line" smooth="yes"/>
      <point x="277" y="639"/>
      <point x="285" y="641"/>
      <point x="293" y="641" type="curve" smooth="yes"/>
      <point x="304" y="642"/>
      <point x="326" y="640"/>
      <point x="337" y="640" type="curve" smooth="yes"/>
      <point x="347" y="639"/>
      <point x="352" y="637"/>
      <point x="355" y="625" type="curve" smooth="yes"/>
    </contour>
  </outline>
</glyph>
<glyph name="icircumflex" format="1">
  <advance width="255"/>
  <unicode hex="00EE"/>
  <outline>
    <contour>
      <point x="223" y="94" type="curve" smooth="yes"/>
      <point x="205" y="71"/>
      <point x="184" y="48"/>
      <point x="160" y="26" type="curve" smooth="yes"/>
      <point x="131" y="-1"/>
      <point x="110" y="-14"/>
      <point x="95" y="-14" type="curve" smooth="yes"/>
      <point x="57" y="-14"/>
      <point x="65" y="40"/>
      <point x="70" y="64" type="curve" smooth="yes"/>
      <point x="121" y="323" type="line" smooth="yes"/>
      <point x="122" y="328"/>
      <point x="132" y="359"/>
      <point x="122" y="359" type="curve" smooth="yes"/>
      <point x="107" y="359"/>
      <point x="82" y="319"/>
      <point x="66" y="307" type="curve" smooth="yes"/>
      <point x="56" y="299"/>
      <point x="49" y="319"/>
      <point x="54" y="324" type="curve" smooth="yes"/>
      <point x="115" y="392"/>
      <point x="155" y="425"/>
      <point x="178" y="425" type="curve" smooth="yes"/>
      <point x="207" y="425"/>
      <point x="201" y="382"/>
      <point x="197" y="364" type="curve" smooth="yes"/>
      <point x="139" y="75" type="line" smooth="yes"/>
      <point x="138" y="70"/>
      <point x="132" y="44"/>
      <point x="143" y="44" type="curve" smooth="yes"/>
      <point x="155" y="44"/>
      <point x="198" y="96"/>
      <point x="207" y="108" type="curve" smooth="yes"/>
      <point x="214" y="117"/>
      <point x="230" y="103"/>
    </contour>
    <contour>
      <point x="303" y="488" type="line" smooth="yes"/>
      <point x="304" y="482"/>
      <point x="304" y="478"/>
      <point x="298" y="478" type="curve" smooth="yes"/>
      <point x="292" y="478" type="line"/>
      <point x="213" y="573" type="line" smooth="yes"/>
      <point x="210" y="577"/>
      <point x="205" y="577"/>
      <point x="200" y="574" type="curve" smooth="yes"/>
      <point x="51" y="478" type="line"/>
      <point x="39" y="478" type="line" smooth="yes"/>
      <point x="35" y="479"/>
      <point x="36" y="482"/>
      <point x="39" y="485" type="curve" smooth="yes"/>
      <point x="185" y="632" type="line" smooth="yes"/>
      <point x="191" y="639"/>
      <point x="199" y="641"/>
      <point x="207" y="641" type="curve" smooth="yes"/>
      <point x="218" y="642"/>
      <point x="240" y="640"/>
      <point x="251" y="640" type="curve" smooth="yes"/>
      <point x="261" y="639"/>
      <point x="266" y="637"/>
      <point x="269" y="625" type="curve" smooth="yes"/>
    </contour>
  </outline>
</glyph>
<glyph name="otilde" format="1">
  <advance width="398"/>
  <unicode hex="00F5"/>
  <outline>
    <contour>
      <point x="374" y="274" type="curve" smooth="yes"/>
      <point x="374" y="212"/>
      <point x="355" y="154"/>
      <point x="319" y="107" type="curve" smooth="yes"/>
      <point x="289" y="68"/>
      <point x="236" y="25"/>
      <point x="187" y="4" type="curve" smooth="yes"/>
      <point x="165" y="-6"/>
      <point x="145" y="-12"/>
      <point x="131" y="-12" type="curve" smooth="yes"/>
      <point x="86" y="-12"/>
      <point x="38" y="68"/>
      <point x="38" y="155" type="curve" smooth="yes"/>
      <point x="38" y="241"/>
      <point x="89" y="326"/>
      <point x="175" y="385" type="curve" smooth="yes"/>
      <point x="213" y="411"/>
      <point x="254" y="429"/>
      <point x="279" y="429" type="curve" smooth="yes"/>
      <point x="324" y="429"/>
      <point x="374" y="356"/>
    </contour>
    <contour>
      <point x="305" y="261" type="curve" smooth="yes"/>
      <point x="305" y="332"/>
      <point x="270" y="385"/>
      <point x="228" y="385" type="curve" smooth="yes"/>
      <point x="166" y="385"/>
      <point x="109" y="275"/>
      <point x="109" y="151" type="curve" smooth="yes"/>
      <point x="109" y="83"/>
      <point x="140" y="30"/>
      <point x="176" y="30" type="curve" smooth="yes"/>
      <point x="242" y="30"/>
      <point x="305" y="139"/>
    </contour>
    <contour>
      <point x="435" y="612" type="curve" smooth="yes"/>
      <point x="435" y="543"/>
      <point x="395" y="490"/>
      <point x="342" y="490" type="curve" smooth="yes"/>
      <point x="275" y="490"/>
      <point x="221" y="560"/>
      <point x="182" y="560" type="curve" smooth="yes"/>
      <point x="157" y="560"/>
      <point x="146" y="547"/>
      <point x="137" y="499" type="curve" smooth="yes"/>
      <point x="136" y="493"/>
      <point x="133" y="491"/>
      <point x="125" y="491" type="curve" smooth="yes"/>
      <point x="118" y="491"/>
      <point x="116" y="495"/>
      <point x="117" y="505" type="curve" smooth="yes"/>
      <point x="124" y="584"/>
      <point x="157" y="626"/>
      <point x="211" y="626" type="curve" smooth="yes"/>
      <point x="273" y="626"/>
      <point x="332" y="556"/>
      <point x="371" y="556" type="curve" smooth="yes"/>
      <point x="394" y="556"/>
      <point x="408" y="572"/>
      <point x="415" y="615" type="curve" smooth="yes"/>
      <point x="416" y="623"/>
      <point x="418" y="625"/>
      <point x="426" y="625" type="curve" smooth="yes"/>
      <point x="435" y="625"/>
      <point x="435" y="619"/>
    </contour>
  </outline>
</glyph>
<glyph name="divide" format="1">
  <advance width="680"/>
  <unicode hex="00F7"/>
  <outline>
    <contour>
      <point x="376" y="544" type="curve" smooth="yes"/>
      <point x="376" y="522"/>
      <point x="359" y="505"/>
      <point x="339" y="505" type="curve" smooth="yes"/>
      <point x="317" y="505"/>
      <point x="299" y="523"/>
      <point x="300" y="546" type="curve" smooth="yes"/>
      <point x="300" y="566"/>
      <point x="319" y="581"/>
      <point x="339" y="581" type="curve" smooth="yes"/>
      <point x="359" y="581"/>
      <point x="376" y="565"/>
    </contour>
    <contour>
      <point x="610" y="305" type="line"/>
      <point x="70" y="305" type="line"/>
      <point x="70" y="362" type="line"/>
      <point x="610" y="362" type="line"/>
    </contour>
    <contour>
      <point x="376" y="127" type="curve" smooth="yes"/>
      <point x="376" y="106"/>
      <point x="360" y="89"/>
      <point x="339" y="89" type="curve" smooth="yes"/>
      <point x="317" y="89"/>
      <point x="300" y="106"/>
      <point x="300" y="127" type="curve" smooth="yes"/>
      <point x="300" y="149"/>
      <point x="317" y="165"/>
      <point x="339" y="165" type="curve" smooth="yes"/>
      <point x="360" y="165"/>
      <point x="376" y="149"/>
    </contour>
  </outline>
</glyph>
<glyph name="ucircumflex" format="1">
  <advance width="487"/>
  <unicode hex="00FB"/>
  <outline>
    <contour>
      <point x="453" y="109" type="curve" smooth="yes"/>
      <point x="402" y="44"/>
      <point x="339" y="-12"/>
      <point x="318" y="-12" type="curve" smooth="yes"/>
      <point x="305" y="-12"/>
      <point x="297" y="1"/>
      <point x="297" y="19" type="curve" smooth="yes"/>
      <point x="297" y="69"/>
      <point x="316" y="156"/>
      <point x="329" y="205" type="curve" smooth="yes"/>
      <point x="334" y="223"/>
      <point x="324" y="214"/>
      <point x="317" y="204" type="curve" smooth="yes"/>
      <point x="240" y="83"/>
      <point x="155" y="-12"/>
      <point x="111" y="-12" type="curve" smooth="yes"/>
      <point x="63" y="-12"/>
      <point x="85" y="90"/>
      <point x="89" y="111" type="curve" smooth="yes"/>
      <point x="134" y="337" type="line" smooth="yes"/>
      <point x="135" y="341"/>
      <point x="139" y="355"/>
      <point x="134" y="355" type="curve" smooth="yes"/>
      <point x="118" y="355"/>
      <point x="89" y="310"/>
      <point x="79" y="298" type="curve" smooth="yes"/>
      <point x="69" y="284"/>
      <point x="58" y="301"/>
      <point x="64" y="309" type="curve" smooth="yes"/>
      <point x="77" y="328"/>
      <point x="154" y="427"/>
      <point x="189" y="427" type="curve" smooth="yes"/>
      <point x="220" y="427"/>
      <point x="210" y="374"/>
      <point x="206" y="356" type="curve" smooth="yes"/>
      <point x="157" y="110" type="line" smooth="yes"/>
      <point x="150" y="76"/>
      <point x="145" y="34"/>
      <point x="192" y="76" type="curve" smooth="yes"/>
      <point x="237" y="117"/>
      <point x="326" y="243"/>
      <point x="345" y="306" type="curve" smooth="yes"/>
      <point x="356" y="341"/>
      <point x="361" y="378"/>
      <point x="367" y="414" type="curve" smooth="yes"/>
      <point x="369" y="425"/>
      <point x="375" y="430"/>
      <point x="389" y="430" type="curve" smooth="yes"/>
      <point x="404" y="429"/>
      <point x="400" y="429"/>
      <point x="420" y="430" type="curve" smooth="yes"/>
      <point x="438" y="430"/>
      <point x="437" y="416"/>
      <point x="435" y="405" type="curve" smooth="yes"/>
      <point x="372" y="83" type="line" smooth="yes"/>
      <point x="364" y="44"/>
      <point x="391" y="72"/>
      <point x="401" y="83" type="curve" smooth="yes"/>
      <point x="413" y="96"/>
      <point x="427" y="111"/>
      <point x="438" y="125" type="curve" smooth="yes"/>
      <point x="444" y="135"/>
      <point x="456" y="119"/>
    </contour>
    <contour>
      <point x="430" y="488" type="line" smooth="yes"/>
      <point x="431" y="482"/>
      <point x="431" y="478"/>
      <point x="425" y="478" type="curve" smooth="yes"/>
      <point x="419" y="478" type="line"/>
      <point x="340" y="573" type="line" smooth="yes"/>
      <point x="337" y="577"/>
      <point x="332" y="577"/>
      <point x="327" y="574" type="curve" smooth="yes"/>
      <point x="178" y="478" type="line"/>
      <point x="166" y="478" type="line" smooth="yes"/>
      <point x="162" y="479"/>
      <point x="163" y="482"/>
      <point x="166" y="485" type="curve" smooth="yes"/>
      <point x="312" y="632" type="line" smooth="yes"/>
      <point x="318" y="639"/>
      <point x="326" y="641"/>
      <point x="334" y="641" type="curve" smooth="yes"/>
      <point x="345" y="642"/>
      <point x="367" y="640"/>
      <point x="378" y="640" type="curve" smooth="yes"/>
      <point x="388" y="639"/>
      <point x="393" y="637"/>
      <point x="396" y="625" type="curve" smooth="yes"/>
    </contour>
  </outline>
</glyph>
<glyph name="thorn" format="1">
  <advance width="446"/>
  <unicode hex="00FE"/>
  <outline>
    <contour>
      <point x="430" y="273" type="curve" smooth="yes"/>
      <point x="430" y="127"/>
      <point x="310" y="-14"/>
      <point x="185" y="-14" type="curve" smooth="yes"/>
      <point x="172" y="-14"/>
      <point x="160" y="-13"/>
      <point x="146" y="-10" type="curve" smooth="yes"/>
      <point x="140" y="-8"/>
      <point x="130" y="-10"/>
      <point x="127" y="-25" type="curve" smooth="yes"/>
      <point x="109" y="-119" type="line" smooth="yes"/>
      <point x="96" y="-187"/>
      <point x="77" y="-215"/>
      <point x="167" y="-219" type="curve" smooth="yes"/>
      <point x="174" y="-219"/>
      <point x="179" y="-224"/>
      <point x="177" y="-231" type="curve" smooth="yes"/>
      <point x="175" y="-243"/>
      <point x="171" y="-246"/>
      <point x="157" y="-245" type="curve" smooth="yes"/>
      <point x="101" y="-243"/>
      <point x="5" y="-242"/>
      <point x="-58" y="-245" type="curve" smooth="yes"/>
      <point x="-64" y="-246"/>
      <point x="-71" y="-242"/>
      <point x="-68" y="-230" type="curve" smooth="yes"/>
      <point x="-63" y="-220"/>
      <point x="-60" y="-219"/>
      <point x="-46" y="-218" type="curve" smooth="yes"/>
      <point x="4" y="-215"/>
      <point x="27" y="-197"/>
      <point x="38" y="-139" type="curve" smooth="yes"/>
      <point x="43" y="-115"/>
      <point x="16" y="-250"/>
      <point x="182" y="585" type="curve" smooth="yes"/>
      <point x="186" y="606"/>
      <point x="187" y="615"/>
      <point x="180" y="615" type="curve" smooth="yes"/>
      <point x="161" y="615"/>
      <point x="122" y="568"/>
      <point x="120" y="566" type="curve" smooth="yes"/>
      <point x="113" y="558"/>
      <point x="107" y="556"/>
      <point x="101" y="562" type="curve" smooth="yes"/>
      <point x="91" y="572"/>
      <point x="100" y="581"/>
      <point x="105" y="587" type="curve" smooth="yes"/>
      <point x="158" y="653"/>
      <point x="217" y="700"/>
      <point x="241" y="700" type="curve" smooth="yes"/>
      <point x="273" y="700"/>
      <point x="256" y="624"/>
      <point x="253" y="607" type="curve" smooth="yes"/>
      <point x="192" y="302" type="line" smooth="yes"/>
      <point x="190" y="291"/>
      <point x="195" y="282"/>
      <point x="202" y="291" type="curve" smooth="yes"/>
      <point x="227" y="323"/>
      <point x="314" y="424"/>
      <point x="360" y="424" type="curve" smooth="yes"/>
      <point x="410" y="424"/>
      <point x="430" y="307"/>
    </contour>
    <contour>
      <point x="362" y="269" type="curve" smooth="yes"/>
      <point x="362" y="327"/>
      <point x="343" y="367"/>
      <point x="320" y="367" type="curve" smooth="yes"/>
      <point x="298" y="367"/>
      <point x="236" y="302"/>
      <point x="175" y="213" type="curve"/>
      <point x="146" y="66" type="line" smooth="yes"/>
      <point x="143" y="50"/>
      <point x="144" y="36"/>
      <point x="153" y="30" type="curve" smooth="yes"/>
      <point x="169" y="19"/>
      <point x="183" y="15"/>
      <point x="202" y="15" type="curve" smooth="yes"/>
      <point x="284" y="15"/>
      <point x="362" y="137"/>
    </contour>
  </outline>
</glyph>
<glyph name="Lslash" format="1">
  <advance width="593"/>
  <unicode hex="0141"/>
  <outline>
    <contour>
      <point x="623" y="129" type="curve" smooth="yes"/>
      <point x="611" y="75"/>
      <point x="595" y="38"/>
      <point x="584" y="11" type="curve" smooth="yes"/>
      <point x="581" y="3"/>
      <point x="567" y="-2"/>
      <point x="558" y="-2" type="curve" smooth="yes"/>
      <point x="430" y="1"/>
      <point x="211" y="1"/>
      <point x="48" y="-2" type="curve" smooth="yes"/>
      <point x="40" y="-2"/>
      <point x="34" y="3"/>
      <point x="37" y="10" type="curve" smooth="yes"/>
      <point x="41" y="20" type="line" smooth="yes"/>
      <point x="45" y="31"/>
      <point x="42" y="29"/>
      <point x="57" y="29" type="curve" smooth="yes"/>
      <point x="112" y="29"/>
      <point x="128" y="47"/>
      <point x="144" y="127" type="curve" smooth="yes"/>
      <point x="167" y="243" type="line" smooth="yes"/>
      <point x="169" y="252"/>
      <point x="163" y="257"/>
      <point x="154" y="250" type="curve" smooth="yes"/>
      <point x="133" y="231"/>
      <point x="111" y="212"/>
      <point x="87" y="191" type="curve" smooth="yes"/>
      <point x="79" y="184"/>
      <point x="72" y="188"/>
      <point x="74" y="197" type="curve" smooth="yes"/>
      <point x="90" y="260" type="line" smooth="yes"/>
      <point x="93" y="272"/>
      <point x="101" y="281"/>
      <point x="107" y="287" type="curve" smooth="yes"/>
      <point x="190" y="356" type="line" smooth="yes"/>
      <point x="191" y="362"/>
      <point x="231" y="516"/>
      <point x="231" y="577" type="curve" smooth="yes"/>
      <point x="231" y="606"/>
      <point x="208" y="623"/>
      <point x="168" y="623" type="curve" smooth="yes"/>
      <point x="159" y="623" type="line" smooth="yes"/>
      <point x="151" y="623"/>
      <point x="146" y="629"/>
      <point x="150" y="638" type="curve" smooth="yes"/>
      <point x="156" y="646"/>
      <point x="160" y="648"/>
      <point x="165" y="648" type="curve" smooth="yes"/>
      <point x="212" y="646"/>
      <point x="303" y="644"/>
      <point x="411" y="647" type="curve" smooth="yes"/>
      <point x="419" y="647"/>
      <point x="418" y="644"/>
      <point x="420" y="640" type="curve" smooth="yes"/>
      <point x="417" y="627"/>
      <point x="416" y="623"/>
      <point x="402" y="623" type="curve" smooth="yes"/>
      <point x="343" y="623"/>
      <point x="323" y="605"/>
      <point x="309" y="532" type="curve" smooth="yes"/>
      <point x="295" y="460" type="line" smooth="yes"/>
      <point x="292" y="446"/>
      <point x="295" y="443"/>
      <point x="308" y="454" type="curve" smooth="yes"/>
      <point x="333" y="476"/>
      <point x="358" y="497"/>
      <point x="386" y="520" type="curve" smooth="yes"/>
      <point x="398" y="531"/>
      <point x="399" y="521"/>
      <point x="397" y="513" type="curve" smooth="yes"/>
      <point x="381" y="452" type="line" smooth="yes"/>
      <point x="379" y="443"/>
      <point x="371" y="431"/>
      <point x="359" y="420" type="curve" smooth="yes"/>
      <point x="273" y="347" type="line"/>
      <point x="227" y="119" type="line" smooth="yes"/>
      <point x="224" y="105"/>
      <point x="223" y="91"/>
      <point x="223" y="79" type="curve" smooth="yes"/>
      <point x="223" y="50"/>
      <point x="238" y="36"/>
      <point x="272" y="36" type="curve" smooth="yes"/>
      <point x="390" y="36" type="line" smooth="yes"/>
      <point x="446" y="36"/>
      <point x="486" y="45"/>
      <point x="522" y="66" type="curve" smooth="yes"/>
      <point x="551" y="82"/>
      <point x="570" y="99"/>
      <point x="598" y="136" type="curve" smooth="yes"/>
      <point x="605" y="145"/>
      <point x="611" y="144"/>
      <point x="614" y="144" type="curve" smooth="yes"/>
      <point x="622" y="144"/>
      <point x="626" y="142"/>
    </contour>
  </outline>
</glyph>
<glyph name="oe" format="1">
  <advance width="581"/>
  <unicode hex="0153"/>
  <outline>
    <contour>
      <point x="592" y="349" type="curve" smooth="yes"/>
      <point x="592" y="308"/>
      <point x="560" y="270"/>
      <point x="504" y="242" type="curve" smooth="yes"/>
      <point x="457" y="219"/>
      <point x="404" y="200"/>
      <point x="359" y="188" type="curve" smooth="yes"/>
      <point x="352" y="187"/>
      <point x="347" y="187"/>
      <point x="345" y="168" type="curve" smooth="yes"/>
      <point x="343" y="153"/>
      <point x="343" y="143"/>
      <point x="343" y="127" type="curve" smooth="yes"/>
      <point x="343" y="60"/>
      <point x="370" y="25"/>
      <point x="420" y="25" type="curve" smooth="yes"/>
      <point x="453" y="25"/>
      <point x="491" y="42"/>
      <point x="539" y="79" type="curve" smooth="yes"/>
      <point x="542" y="82"/>
      <point x="546" y="82"/>
      <point x="549" y="76" type="curve" smooth="yes"/>
      <point x="551" y="71"/>
      <point x="552" y="64"/>
      <point x="548" y="60" type="curve" smooth="yes"/>
      <point x="485" y="11"/>
      <point x="424" y="-14"/>
      <point x="378" y="-14" type="curve" smooth="yes"/>
      <point x="337" y="-14"/>
      <point x="307" y="11"/>
      <point x="288" y="62" type="curve" smooth="yes"/>
      <point x="284" y="73"/>
      <point x="278" y="76"/>
      <point x="271" y="68" type="curve" smooth="yes"/>
      <point x="248" y="44"/>
      <point x="235" y="34"/>
      <point x="214" y="20" type="curve" smooth="yes"/>
      <point x="184" y="1"/>
      <point x="146" y="-15"/>
      <point x="124" y="-15" type="curve" smooth="yes"/>
      <point x="75" y="-15"/>
      <point x="33" y="56"/>
      <point x="33" y="137" type="curve" smooth="yes"/>
      <point x="33" y="237"/>
      <point x="82" y="326"/>
      <point x="171" y="388" type="curve" smooth="yes"/>
      <point x="206" y="412"/>
      <point x="237" y="424"/>
      <point x="264" y="424" type="curve" smooth="yes"/>
      <point x="303" y="424"/>
      <point x="329" y="398"/>
      <point x="346" y="340" type="curve" smooth="yes"/>
      <point x="349" y="329"/>
      <point x="354" y="334"/>
      <point x="360" y="342" type="curve" smooth="yes"/>
      <point x="400" y="398"/>
      <point x="448" y="424"/>
      <point x="505" y="424" type="curve" smooth="yes"/>
      <point x="558" y="424"/>
      <point x="592" y="395"/>
    </contour>
    <contour>
      <point x="535" y="347" type="curve" smooth="yes"/>
      <point x="535" y="377"/>
      <point x="514" y="399"/>
      <point x="484" y="399" type="curve" smooth="yes"/>
      <point x="424" y="399"/>
      <point x="383" y="347"/>
      <point x="356" y="229" type="curve" smooth="yes"/>
      <point x="353" y="216"/>
      <point x="354" y="210"/>
      <point x="367" y="213" type="curve" smooth="yes"/>
      <point x="476" y="243"/>
      <point x="535" y="292"/>
    </contour>
    <contour>
      <point x="290" y="266" type="curve" smooth="yes"/>
      <point x="290" y="336"/>
      <point x="261" y="385"/>
      <point x="226" y="385" type="curve" smooth="yes"/>
      <point x="162" y="385"/>
      <point x="101" y="289"/>
      <point x="101" y="167" type="curve" smooth="yes"/>
      <point x="101" y="120"/>
      <point x="109" y="29"/>
      <point x="176" y="29" type="curve" smooth="yes"/>
      <point x="233" y="29"/>
      <point x="290" y="144"/>
    </contour>
  </outline>
</glyph>
<glyph name="Ydieresis" format="1">
  <advance width="639"/>
  <unicode hex="0178"/>
  <outline>
    <contour>
      <point x="608" y="756" type="curve" smooth="yes"/>
      <point x="608" y="727"/>
      <point x="585" y="702"/>
      <point x="557" y="702" type="curve" smooth="yes"/>
      <point x="528" y="702"/>
      <point x="504" y="727"/>
      <point x="504" y="756" type="curve" smooth="yes"/>
      <point x="504" y="786"/>
      <point x="528" y="809"/>
      <point x="557" y="809" type="curve" smooth="yes"/>
      <point x="585" y="809"/>
      <point x="608" y="786"/>
    </contour>
    <contour>
      <point x="440" y="755" type="curve" smooth="yes"/>
      <point x="440" y="727"/>
      <point x="416" y="702"/>
      <point x="389" y="702" type="curve" smooth="yes"/>
      <point x="360" y="702"/>
      <point x="337" y="727"/>
      <point x="337" y="755" type="curve" smooth="yes"/>
      <point x="337" y="785"/>
      <point x="360" y="808"/>
      <point x="389" y="808" type="curve" smooth="yes"/>
      <point x="416" y="808"/>
      <point x="440" y="785"/>
    </contour>
    <contour>
      <point x="762" y="638" type="curve" smooth="yes"/>
      <point x="760" y="629"/>
      <point x="757" y="626"/>
      <point x="756" y="625" type="curve" smooth="yes"/>
      <point x="714" y="609"/>
      <point x="701" y="602"/>
      <point x="660" y="554" type="curve" smooth="yes"/>
      <point x="406" y="262" type="line"/>
      <point x="375" y="112" type="line" smooth="yes"/>
      <point x="362" y="50"/>
      <point x="369" y="26"/>
      <point x="441" y="28" type="curve" smooth="yes"/>
      <point x="449" y="28"/>
      <point x="462" y="29"/>
      <point x="469" y="27" type="curve" smooth="yes"/>
      <point x="479" y="25"/>
      <point x="469" y="-2"/>
      <point x="464" y="-2" type="curve" smooth="yes"/>
      <point x="388" y="0"/>
      <point x="248" y="0"/>
      <point x="162" y="-2" type="curve" smooth="yes"/>
      <point x="153" y="0"/>
      <point x="160" y="26"/>
      <point x="170" y="27" type="curve" smooth="yes"/>
      <point x="193" y="28"/>
      <point x="230" y="28"/>
      <point x="250" y="41" type="curve" smooth="yes"/>
      <point x="266" y="52"/>
      <point x="276" y="72"/>
      <point x="285" y="113" type="curve" smooth="yes"/>
      <point x="317" y="263" type="line"/>
      <point x="191" y="550" type="line" smooth="yes"/>
      <point x="166" y="608"/>
      <point x="149" y="620"/>
      <point x="112" y="622" type="curve" smooth="yes"/>
      <point x="103" y="622"/>
      <point x="101" y="625"/>
      <point x="103" y="635" type="curve" smooth="yes"/>
      <point x="104" y="641"/>
      <point x="108" y="646"/>
      <point x="114" y="646" type="curve" smooth="yes"/>
      <point x="176" y="643"/>
      <point x="276" y="644"/>
      <point x="328" y="646" type="curve" smooth="yes"/>
      <point x="334" y="644"/>
      <point x="338" y="642"/>
      <point x="335" y="634" type="curve" smooth="yes"/>
      <point x="334" y="629"/>
      <point x="332" y="622"/>
      <point x="329" y="622" type="curve" smooth="yes"/>
      <point x="270" y="617"/>
      <point x="259" y="615"/>
      <point x="288" y="548" type="curve" smooth="yes"/>
      <point x="390" y="315" type="line" smooth="yes"/>
      <point x="393" y="307"/>
      <point x="393" y="299"/>
      <point x="406" y="315" type="curve" smooth="yes"/>
      <point x="590" y="529" type="line" smooth="yes"/>
      <point x="620" y="564"/>
      <point x="629" y="575"/>
      <point x="629" y="590" type="curve" smooth="yes"/>
      <point x="629" y="610"/>
      <point x="610" y="620"/>
      <point x="567" y="622" type="curve" smooth="yes"/>
      <point x="558" y="624"/>
      <point x="565" y="648"/>
      <point x="575" y="646" type="curve" smooth="yes"/>
      <point x="638" y="643"/>
      <point x="688" y="642"/>
      <point x="752" y="646" type="curve" smooth="yes"/>
      <point x="757" y="646"/>
      <point x="763" y="643"/>
    </contour>
  </outline>
</glyph>
<glyph name="Zcaron" format="1">
  <advance width="700"/>
  <unicode hex="017D"/>
  <outline>
    <contour>
      <point x="727" y="622" type="curve"/>
      <point x="578" y="479"/>
      <point x="299" y="201"/>
      <point x="142" y="44" type="curve" smooth="yes"/>
      <point x="133" y="35"/>
      <point x="135" y="34"/>
      <point x="148" y="32" type="curve" smooth="yes"/>
      <point x="411" y="32" type="line" smooth="yes"/>
      <point x="478" y="32"/>
      <point x="514" y="44"/>
      <point x="549" y="75" type="curve" smooth="yes"/>
      <point x="578" y="101"/>
      <point x="600" y="131"/>
      <point x="630" y="181" type="curve" smooth="yes"/>
      <point x="634" y="184"/>
      <point x="642" y="187"/>
      <point x="646" y="186" type="curve" smooth="yes"/>
      <point x="652" y="184"/>
      <point x="653" y="181"/>
      <point x="651" y="174" type="curve" smooth="yes"/>
      <point x="640" y="141"/>
      <point x="617" y="58"/>
      <point x="607" y="16" type="curve" smooth="yes"/>
      <point x="603" y="4"/>
      <point x="593" y="-2"/>
      <point x="584" y="-2" type="curve" smooth="yes"/>
      <point x="433" y="0"/>
      <point x="163" y="0"/>
      <point x="3" y="-2" type="curve" smooth="yes"/>
      <point x="-3" y="0"/>
      <point x="0" y="19"/>
      <point x="2" y="21" type="curve" smooth="yes"/>
      <point x="150" y="165"/>
      <point x="416" y="431"/>
      <point x="586" y="600" type="curve" smooth="yes"/>
      <point x="600" y="613"/>
      <point x="590" y="613"/>
      <point x="580" y="613" type="curve" smooth="yes"/>
      <point x="386" y="613" type="line" smooth="yes"/>
      <point x="284" y="613"/>
      <point x="229" y="574"/>
      <point x="190" y="471" type="curve" smooth="yes"/>
      <point x="189" y="468"/>
      <point x="182" y="467"/>
      <point x="177" y="466" type="curve" smooth="yes"/>
      <point x="172" y="466"/>
      <point x="165" y="467"/>
      <point x="165" y="472" type="curve" smooth="yes"/>
      <point x="175" y="510"/>
      <point x="202" y="597"/>
      <point x="206" y="634" type="curve" smooth="yes"/>
      <point x="208" y="643"/>
      <point x="220" y="646"/>
      <point x="226" y="646" type="curve" smooth="yes"/>
      <point x="352" y="644"/>
      <point x="582" y="645"/>
      <point x="710" y="646" type="curve" smooth="yes"/>
      <point x="730" y="648"/>
      <point x="731" y="638"/>
    </contour>
    <contour>
      <point x="654" y="853" type="line"/>
      <point x="496" y="690" type="line"/>
      <point x="420" y="690" type="line"/>
      <point x="382" y="853" type="line"/>
      <point x="395" y="853" type="line"/>
      <point x="479" y="751" type="line"/>
      <point x="636" y="853" type="line"/>
    </contour>
  </outline>
</glyph>
<glyph name="circumflex" format="1">
  <advance width="339"/>
  <unicode hex="02C6"/>
  <outline>
    <contour>
      <point x="362" y="488" type="line" smooth="yes"/>
      <point x="363" y="482"/>
      <point x="363" y="478"/>
      <point x="357" y="478" type="curve" smooth="yes"/>
      <point x="351" y="478" type="line"/>
      <point x="272" y="573" type="line" smooth="yes"/>
      <point x="269" y="577"/>
      <point x="264" y="577"/>
      <point x="259" y="574" type="curve" smooth="yes"/>
      <point x="110" y="478" type="line"/>
      <point x="98" y="478" type="line" smooth="yes"/>
      <point x="94" y="479"/>
      <point x="95" y="482"/>
      <point x="98" y="485" type="curve" smooth="yes"/>
      <point x="244" y="632" type="line" smooth="yes"/>
      <point x="250" y="639"/>
      <point x="258" y="641"/>
      <point x="266" y="641" type="curve" smooth="yes"/>
      <point x="277" y="642"/>
      <point x="299" y="640"/>
      <point x="310" y="640" type="curve" smooth="yes"/>
      <point x="320" y="639"/>
      <point x="325" y="637"/>
      <point x="328" y="625" type="curve" smooth="yes"/>
    </contour>
  </outline>
</glyph>
<glyph name="caron" format="1">
  <advance width="339"/>
  <unicode hex="02C7"/>
  <outline>
    <contour>
      <point x="420" y="641" type="line"/>
      <point x="262" y="478" type="line"/>
      <point x="186" y="478" type="line"/>
      <point x="148" y="641" type="line"/>
      <point x="161" y="641" type="line"/>
      <point x="245" y="539" type="line"/>
      <point x="402" y="641" type="line"/>
    </contour>
  </outline>
</glyph>
<glyph name="ring" format="1">
  <advance width="339"/>
  <unicode hex="02DA"/>
  <outline>
    <contour>
      <point x="348" y="559" type="curve" smooth="yes"/>
      <point x="348" y="505"/>
      <point x="306" y="462"/>
      <point x="253" y="462" type="curve" smooth="yes"/>
      <point x="201" y="462"/>
      <point x="157" y="505"/>
      <point x="157" y="559" type="curve" smooth="yes"/>
      <point x="157" y="613"/>
      <point x="201" y="657"/>
      <point x="253" y="657" type="curve" smooth="yes"/>
      <point x="306" y="657"/>
      <point x="348" y="613"/>
    </contour>
    <contour>
      <point x="313" y="559" type="curve" smooth="yes"/>
      <point x="313" y="593"/>
      <point x="286" y="620"/>
      <point x="253" y="620" type="curve" smooth="yes"/>
      <point x="220" y="620"/>
      <point x="194" y="593"/>
      <point x="194" y="559" type="curve" smooth="yes"/>
      <point x="194" y="526"/>
      <point x="220" y="499"/>
      <point x="253" y="499" type="curve" smooth="yes"/>
      <point x="286" y="499"/>
      <point x="313" y="526"/>
    </contour>
  </outline>
</glyph>
<glyph name="tilde" format="1">
  <advance width="339"/>
  <unicode hex="02DC"/>
  <outline>
    <contour>
      <point x="404" y="612" type="curve" smooth="yes"/>
      <point x="404" y="543"/>
      <point x="364" y="490"/>
      <point x="311" y="490" type="curve" smooth="yes"/>
      <point x="244" y="490"/>
      <point x="190" y="560"/>
      <point x="151" y="560" type="curve" smooth="yes"/>
      <point x="126" y="560"/>
      <point x="115" y="547"/>
      <point x="106" y="499" type="curve" smooth="yes"/>
      <point x="105" y="493"/>
      <point x="102" y="491"/>
      <point x="94" y="491" type="curve" smooth="yes"/>
      <point x="87" y="491"/>
      <point x="85" y="495"/>
      <point x="86" y="505" type="curve" smooth="yes"/>
      <point x="93" y="584"/>
      <point x="126" y="626"/>
      <point x="180" y="626" type="curve" smooth="yes"/>
      <point x="242" y="626"/>
      <point x="301" y="556"/>
      <point x="340" y="556" type="curve" smooth="yes"/>
      <point x="363" y="556"/>
      <point x="377" y="572"/>
      <point x="384" y="615" type="curve" smooth="yes"/>
      <point x="385" y="623"/>
      <point x="387" y="625"/>
      <point x="395" y="625" type="curve" smooth="yes"/>
      <point x="404" y="625"/>
      <point x="404" y="619"/>
    </contour>
  </outline>
</glyph>
<glyph name="hungarumlaut" format="1">
  <advance width="339"/>
  <unicode hex="02DD"/>
  <outline>
    <contour>
      <point x="451" y="660" type="line"/>
      <point x="298" y="483" type="line"/>
      <point x="278" y="483" type="line"/>
      <point x="333" y="660" type="line"/>
    </contour>
    <contour>
      <point x="314" y="660" type="line"/>
      <point x="162" y="483" type="line"/>
      <point x="142" y="483" type="line"/>
      <point x="196" y="660" type="line"/>
    </contour>
  </outline>
</glyph>
<glyph name="emdash" format="1">
  <advance width="822"/>
  <unicode hex="2014"/>
  <outline>
    <contour>
      <point x="747" y="229" type="curve" smooth="yes"/>
      <point x="751" y="214"/>
      <point x="746" y="211"/>
      <point x="745" y="194" type="curve" smooth="yes"/>
      <point x="743" y="190"/>
      <point x="738" y="182"/>
      <point x="731" y="183" type="curve" smooth="yes"/>
      <point x="104" y="183" type="line" smooth="yes"/>
      <point x="97" y="182"/>
      <point x="87" y="186"/>
      <point x="88" y="196" type="curve" smooth="yes"/>
      <point x="88" y="207"/>
      <point x="90" y="209"/>
      <point x="91" y="219" type="curve" smooth="yes"/>
      <point x="91" y="225"/>
      <point x="91" y="238"/>
      <point x="108" y="238" type="curve" smooth="yes"/>
      <point x="732" y="238" type="line" smooth="yes"/>
      <point x="739" y="236"/>
      <point x="745" y="235"/>
    </contour>
  </outline>
</glyph>
<glyph name="quoteright" format="1">
  <advance width="273"/>
  <unicode hex="2019"/>
  <outline>
    <contour>
      <point x="288" y="573" type="curve" smooth="yes"/>
      <point x="288" y="499"/>
      <point x="232" y="426"/>
      <point x="142" y="380" type="curve" smooth="yes"/>
      <point x="127" y="372"/>
      <point x="120" y="393"/>
      <point x="131" y="401" type="curve" smooth="yes"/>
      <point x="197" y="444"/>
      <point x="220" y="474"/>
      <point x="220" y="511" type="curve" smooth="yes"/>
      <point x="220" y="527"/>
      <point x="218" y="535"/>
      <point x="207" y="552" type="curve" smooth="yes"/>
      <point x="196" y="569"/>
      <point x="192" y="583"/>
      <point x="192" y="597" type="curve" smooth="yes"/>
      <point x="192" y="624"/>
      <point x="209" y="644"/>
      <point x="233" y="644" type="curve" smooth="yes"/>
      <point x="263" y="644"/>
      <point x="288" y="616"/>
    </contour>
  </outline>
</glyph>
<glyph name="fraction" format="1">
  <advance width="191"/>
  <unicode hex="2044"/>
  <outline>
    <contour>
      <point x="488" y="668" type="curve" smooth="yes"/>
      <point x="-135" y="-29" type="line" smooth="yes"/>
      <point x="-147" y="-38"/>
      <point x="-161" y="-41"/>
      <point x="-171" y="-40" type="curve" smooth="yes"/>
      <point x="-182" y="-38"/>
      <point x="-187" y="-31"/>
      <point x="-175" y="-17" type="curve" smooth="yes"/>
      <point x="448" y="680" type="line" smooth="yes"/>
      <point x="455" y="685"/>
      <point x="469" y="690"/>
      <point x="481" y="689" type="curve" smooth="yes"/>
      <point x="493" y="687"/>
      <point x="495" y="680"/>
    </contour>
  </outline>
</glyph>
<glyph name="minus" format="1">
  <advance width="679"/>
  <unicode hex="2212"/>
  <outline>
    <contour>
      <point x="609" y="306" type="line"/>
      <point x="69" y="306" type="line"/>
      <point x="69" y="363" type="line"/>
      <point x="609" y="363" type="line"/>
    </contour>
  </outline>
</glyph>
